<?xml version="1.0" standalone="no"?>
<!DOCTYPE svg PUBLIC "-//W3C//DTD SVG 20010904//EN"
 "http://www.w3.org/TR/2001/REC-SVG-20010904/DTD/svg10.dtd">
<svg version="1.0" xmlns="http://www.w3.org/2000/svg"
 width="828.000000pt" height="1104.000000pt" viewBox="0 0 828.000000 1104.000000"
 preserveAspectRatio="xMidYMid meet">

<g transform="translate(0.000000,1104.000000) scale(0.100000,-0.100000)"
fill="#000000" stroke="none">
<path d="M0 10013 l0 -1028 33 -21 c17 -12 70 -44 117 -72 105 -62 190 -148
215 -217 10 -27 27 -58 37 -67 31 -28 200 -73 358 -97 80 -12 160 -25 178 -28
40 -7 40 -8 7 180 -53 305 -65 384 -65 429 0 26 -6 67 -14 90 -7 24 -21 93
-31 153 -13 87 -15 126 -7 190 9 76 8 83 -18 140 -21 48 -29 88 -39 200 -8 77
-20 187 -27 245 -34 254 -54 437 -65 593 l-12 169 28 26 c26 26 27 26 15 4 -6
-13 -10 -26 -7 -28 2 -2 8 6 14 19 5 12 19 42 31 67 42 87 72 80 -363 80
l-385 0 0 -1027z"/>
<path d="M980 11033 c0 -4 9 -34 19 -67 26 -82 84 -451 125 -791 8 -66 31
-203 50 -305 56 -300 62 -356 91 -880 9 -157 24 -355 33 -440 l17 -154 129
-53 c236 -96 414 -205 492 -300 85 -105 155 -292 153 -407 -1 -28 -3 -43 -6
-33 -4 14 -11 17 -32 12 -21 -4 -32 0 -50 21 -13 15 -24 33 -25 41 -2 12 -8
16 -18 12 -19 -6 -56 -4 -65 3 -7 5 -14 5 -18 -2 -3 -5 -2 -10 4 -10 6 0 8 -7
5 -15 -4 -8 -14 -15 -24 -15 -10 0 -21 -6 -24 -12 -3 -7 -3 -3 0 10 4 17 1 22
-15 22 -11 0 -23 -5 -26 -10 -4 -6 -19 -9 -33 -8 -21 2 -28 -2 -30 -19 -3 -17
-10 -23 -28 -23 -14 0 -23 -4 -20 -8 8 -13 -25 -71 -61 -108 -26 -28 -33 -31
-33 -16 0 10 3 22 7 26 5 4 8 11 9 14 2 14 18 47 25 52 4 3 13 26 20 52 14 52
3 78 -32 78 -11 0 -19 4 -19 9 0 19 -38 21 -103 7 -63 -13 -71 -12 -68 7 2 13
-34 8 -56 -8 -18 -13 -36 -14 -95 -7 -40 5 -81 7 -92 4 -15 -4 -18 -1 -13 11
3 9 2 19 -2 22 -5 3 -11 -2 -15 -10 -3 -8 -12 -15 -21 -15 -8 0 -15 -4 -15
-10 0 -26 -89 11 -91 38 -1 9 -2 24 -3 32 -2 8 -3 45 -4 82 l-2 66 -67 -66
c-38 -37 -76 -80 -86 -95 -25 -38 -40 -25 -32 28 3 25 2 46 -4 49 -18 12 -59
-13 -87 -53 -22 -30 -35 -40 -54 -39 -74 4 -86 0 -149 -53 -10 -9 -15 -9 -22
2 -5 8 -9 17 -9 22 0 26 -116 -20 -127 -51 -10 -28 -35 -52 -55 -52 -29 0 -25
-57 6 -72 37 -16 39 -35 10 -74 -15 -19 -27 -48 -29 -65 -2 -23 -10 -36 -27
-45 -14 -7 -33 -32 -42 -54 -9 -23 -20 -39 -25 -36 -10 7 -3 44 11 63 5 7 7
16 4 22 -9 14 30 97 48 104 9 4 16 12 16 19 0 9 -3 9 -10 -2 -12 -19 -16 -5
-24 75 -5 52 -4 58 8 42 12 -16 14 -16 20 -1 10 26 7 44 -8 44 -22 0 -46 40
-46 76 0 20 -10 41 -26 59 -15 16 -42 58 -62 94 -19 36 -44 79 -55 94 -10 15
-20 39 -22 53 -3 28 -12 41 -22 30 -4 -4 -1 -11 7 -16 8 -5 12 -11 9 -15 -3
-3 -14 4 -24 15 -10 11 -13 20 -7 20 7 0 12 5 12 11 0 6 -6 9 -12 6 -7 -2 -18
5 -25 17 -10 17 -12 -3 -13 -114 0 -129 1 -138 29 -195 29 -61 51 -150 51
-213 0 -36 -42 -102 -66 -102 -12 0 -14 -103 -14 -645 l0 -644 42 19 c31 14
45 27 52 48 l8 29 119 7 119 7 78 -78 c43 -44 95 -87 119 -97 23 -10 44 -25
48 -34 3 -8 10 -56 15 -106 6 -50 15 -109 20 -131 16 -65 11 -129 -14 -212
-13 -43 -31 -127 -41 -188 -9 -60 -20 -123 -25 -140 -5 -16 -14 -52 -21 -78
l-12 -49 -57 4 c-42 2 -56 0 -53 -9 3 -7 26 -13 51 -15 l47 -3 0 -80 0 -80
-65 -18 c-82 -22 -174 -15 -242 19 -57 29 -112 112 -98 148 4 13 3 38 -5 61
-55 180 -68 216 -76 221 -5 3 -9 -110 -9 -278 0 -156 4 -278 8 -272 4 6 16 14
28 18 11 3 31 27 44 52 19 39 21 52 12 81 l-10 34 44 -41 c85 -78 200 -96 345
-54 15 4 17 -6 16 -88 -1 -51 1 -128 4 -172 4 -72 3 -80 -18 -96 -12 -9 -25
-30 -29 -46 -4 -16 -12 -32 -18 -36 -7 -5 -7 -17 2 -41 17 -46 15 -94 -3 -101
-8 -3 -15 -12 -15 -20 0 -23 -50 -76 -71 -76 -10 0 -19 -7 -19 -15 0 -8 -5
-15 -11 -15 -6 0 -9 -8 -7 -17 6 -31 -32 -50 -122 -58 -47 -5 -106 -9 -132 -9
-27 -1 -48 -4 -48 -8 0 -5 9 -8 20 -8 11 0 20 -4 20 -10 0 -5 13 -7 30 -3 35
6 39 -6 10 -32 -20 -18 -22 -18 -50 -1 l-30 17 0 -52 0 -51 34 26 c19 14 40
26 46 26 6 0 9 4 6 9 -3 5 1 11 9 14 8 4 23 -4 34 -19 23 -29 18 -59 -7 -45
-17 10 -77 -4 -106 -25 -18 -12 -18 -13 7 -19 18 -5 37 -1 59 12 18 11 45 19
60 18 15 0 29 4 32 11 2 6 18 13 35 16 26 4 29 2 20 -13 -5 -10 -22 -20 -39
-24 -16 -4 -30 -13 -30 -21 0 -9 -10 -14 -27 -14 -16 0 -35 -5 -43 -10 -13 -8
-12 -10 3 -10 29 0 14 -24 -18 -30 -31 -5 -39 -23 -12 -28 9 -2 17 1 17 6 0 6
17 13 39 17 44 7 81 37 81 65 0 11 7 20 15 20 8 0 12 -6 9 -13 -2 -7 2 -27 11
-43 17 -32 22 -90 5 -64 -7 12 -12 12 -22 2 -15 -15 2 -49 22 -44 7 1 23 -4
36 -13 13 -8 29 -15 36 -15 19 -1 53 -29 44 -37 -4 -4 -11 -1 -16 7 -7 11 -15
12 -49 1 -45 -13 -52 -26 -20 -36 16 -5 18 -10 8 -21 -7 -9 -8 -14 -1 -14 6 0
13 4 16 9 9 14 97 5 107 -10 11 -17 11 -29 2 -29 -5 0 -15 -5 -23 -10 -13 -8
-12 -11 5 -24 20 -15 20 -15 -2 -16 -12 0 -25 -5 -28 -10 -7 -12 9 -13 54 -4
27 6 31 10 31 40 0 24 5 34 15 34 8 0 15 8 15 18 0 14 2 14 9 3 8 -12 14 -13
36 -3 37 17 29 -8 -8 -26 -16 -8 -27 -21 -27 -33 0 -10 -4 -19 -10 -19 -16 0
-11 -37 6 -44 8 -3 26 1 39 10 25 16 76 16 75 -1 0 -5 -6 -10 -14 -10 -12 0
-56 -45 -56 -58 0 -8 135 -1 150 8 9 5 15 4 18 -3 2 -7 10 -12 18 -12 8 0 14
-6 14 -14 0 -11 10 -10 52 6 34 13 54 16 56 9 2 -6 14 -11 27 -11 24 0 39 -12
28 -23 -3 -4 -14 -2 -25 4 -10 5 -23 7 -29 4 -14 -10 9 -35 32 -35 28 0 23
-19 -6 -26 -34 -8 -31 -21 6 -26 20 -3 33 0 36 9 3 7 15 13 27 13 34 0 66 12
60 21 -3 5 8 9 25 9 32 0 49 -14 29 -24 -7 -3 1 -4 17 -1 17 4 43 6 58 5 17 0
26 4 22 10 -3 6 -11 8 -16 5 -12 -8 -12 7 1 39 7 20 16 26 40 26 19 0 29 4 25
10 -4 7 12 9 50 5 63 -5 78 -11 72 -28 -4 -14 16 -37 32 -37 7 0 9 10 5 25
l-6 25 63 -6 c35 -3 75 -11 88 -17 19 -9 25 -9 28 0 3 8 12 9 26 4 12 -4 42
-6 67 -4 25 1 53 3 63 3 9 1 17 6 17 12 0 7 4 7 13 0 19 -16 173 -7 240 13 68
21 72 18 83 -55 4 -25 15 -70 26 -100 12 -35 22 -105 28 -190 5 -74 16 -157
25 -185 8 -27 15 -82 15 -122 0 -39 5 -75 10 -78 6 -4 10 12 10 42 0 77 17 86
22 12 5 -75 0 -98 -14 -77 -6 8 -7 -28 -3 -97 l7 -110 90 -185 c116 -239 144
-312 254 -669 32 -101 46 -132 75 -163 36 -38 40 -52 13 -41 -8 3 -14 -1 -14
-10 0 -8 -7 -14 -16 -13 -9 0 -19 -5 -22 -13 -3 -10 0 -12 12 -8 9 4 16 2 16
-3 0 -6 8 -10 18 -11 13 0 12 -2 -5 -9 -29 -12 -29 -38 0 -50 22 -9 22 -9 1
-9 -12 -1 -24 -7 -27 -15 -4 -10 0 -12 15 -8 18 4 19 3 7 -16 -7 -11 -17 -18
-21 -16 -4 3 -8 -4 -8 -16 0 -11 -6 -23 -14 -26 -14 -5 -10 -50 6 -71 12 -15
-14 -29 -32 -18 -5 3 -10 0 -10 -8 0 -21 11 -27 31 -16 11 5 19 6 19 1 0 -4
-16 -14 -35 -22 -30 -12 -75 -58 -60 -61 5 -1 15 -4 33 -8 4 -1 -4 -7 -17 -12
-17 -7 -21 -14 -16 -27 9 -20 9 -36 0 -74 -4 -15 -4 -36 0 -45 5 -10 7 -22 6
-27 -1 -4 5 -19 14 -32 11 -17 12 -30 5 -49 -5 -14 -6 -25 0 -25 9 0 7 -46 -3
-56 -3 -4 0 -13 8 -21 8 -8 15 -23 15 -33 0 -10 7 -21 16 -24 12 -4 13 -10 6
-19 -10 -12 -1 -101 11 -113 3 -4 2 -14 -3 -24 -5 -10 -7 -40 -3 -67 4 -38 9
-50 22 -49 12 1 16 -9 17 -39 0 -22 6 -50 12 -62 15 -27 16 -80 2 -88 -16 -10
-11 -19 21 -38 32 -18 34 -32 14 -80 -7 -17 -4 -18 39 -12 42 7 46 6 46 -14 0
-12 -11 -26 -27 -35 -25 -14 162 -15 1705 -16 1783 0 1756 0 1723 36 -5 5 -16
35 -26 67 -10 31 -22 57 -26 57 -5 0 -9 8 -9 18 0 9 -6 29 -14 44 -8 15 -17
41 -21 58 -6 29 -54 137 -75 170 -8 13 -34 68 -76 165 -38 87 -68 153 -80 179
-20 42 -18 50 21 69 28 13 35 22 35 46 0 16 6 34 14 40 20 17 46 97 46 142 0
50 -28 109 -52 109 -25 0 -23 15 6 33 65 43 202 264 250 403 41 119 76 236 76
252 0 30 78 85 147 102 42 10 83 49 83 77 0 11 -8 13 -32 9 -28 -5 -26 -3 15
15 53 24 61 48 26 85 -21 22 -21 24 -5 49 9 14 14 30 11 35 -12 20 -72 10
-116 -20 -24 -16 -52 -30 -62 -30 -15 0 -14 6 12 43 56 80 109 129 162 151 29
12 61 33 72 48 18 24 19 30 7 59 -16 38 -104 174 -118 183 -21 13 -94 -36
-111 -73 l-16 -36 -3 44 c-2 24 4 99 12 165 27 205 30 346 12 516 -8 85 -20
220 -26 300 -24 338 -49 465 -149 735 -16 44 -35 96 -42 115 -7 19 -25 67 -40
105 -15 39 -30 90 -34 115 -3 25 -9 53 -12 64 -3 11 -1 16 5 12 6 -3 13 2 16
11 3 10 4 4 2 -14 -1 -17 1 -31 4 -30 4 1 18 -11 33 -28 14 -16 27 -24 27 -17
0 7 5 10 10 7 15 -9 12 -25 -5 -25 -22 0 -18 -17 5 -23 12 -3 20 -14 21 -29 1
-17 3 -18 6 -5 3 11 14 17 34 17 16 0 39 6 50 13 17 9 23 10 26 0 3 -7 13 -13
23 -13 10 0 20 -7 22 -15 3 -13 7 -13 29 -1 30 15 71 26 114 30 17 2 41 6 55
10 17 5 21 4 11 -2 -9 -7 -4 -11 20 -15 19 -2 39 0 46 5 17 13 73 0 73 -18 0
-16 2 -17 58 -4 35 8 46 7 58 -5 13 -13 19 -13 49 -1 19 8 51 12 73 10 25 -3
58 3 90 15 l51 20 3 -30 3 -31 32 31 c38 36 53 39 71 11 7 -11 23 -20 37 -20
18 0 28 -8 36 -27 5 -14 8 -32 5 -40 -3 -7 1 -13 10 -13 8 0 18 -8 21 -17 4
-10 20 -31 35 -48 15 -16 28 -34 28 -38 0 -4 9 -20 20 -35 10 -15 33 -66 50
-113 17 -48 56 -125 85 -170 30 -46 66 -104 79 -129 13 -25 38 -58 55 -75 17
-16 31 -34 31 -39 0 -4 27 -35 60 -67 41 -41 67 -59 85 -59 16 0 25 -6 25 -15
0 -8 5 -15 11 -15 6 0 9 6 6 14 -3 8 5 31 19 51 27 41 29 52 12 57 -15 5 -17
40 -3 50 5 4 15 2 22 -4 17 -14 16 -7 -1 28 -19 35 -13 44 30 44 42 0 43 -1
119 -113 33 -49 68 -94 79 -99 10 -6 28 -21 40 -34 12 -13 35 -26 51 -29 23
-4 25 -3 10 4 -17 7 -14 10 23 21 43 13 56 30 25 30 -13 1 -10 5 10 16 18 10
27 23 27 39 0 17 6 25 17 25 15 0 16 1 0 13 -13 10 -14 20 -6 62 7 38 6 67 -6
122 -9 40 -20 75 -25 78 -5 3 -14 24 -20 46 l-11 40 -35 -30 c-52 -46 -123
-79 -204 -96 -3 0 -21 -4 -42 -8 -20 -4 -39 -14 -42 -22 -3 -8 -16 -15 -29
-15 -20 0 -23 4 -19 34 3 26 10 36 28 40 22 6 28 18 25 56 0 10 1 11 5 3 3 -7
13 -13 21 -13 14 0 13 3 -2 20 -15 16 -26 19 -49 14 -17 -4 -44 -6 -60 -6 -16
0 -48 -8 -70 -19 -34 -16 -42 -17 -54 -5 -22 21 -27 85 -8 92 25 10 19 22 -16
30 -18 3 -49 15 -68 25 -19 11 -40 19 -47 19 -6 0 -32 9 -57 19 -36 16 -47 26
-54 53 -4 18 -15 33 -23 33 -8 0 -22 16 -31 35 -22 44 -22 61 -3 54 9 -4 15 0
15 10 0 9 8 16 17 16 33 0 84 24 78 38 -2 7 -1 11 4 8 5 -3 14 1 21 9 7 8 19
15 26 15 8 0 14 5 14 10 0 14 -22 12 -44 -5 -26 -20 -35 -19 -33 4 1 15 12 20
49 25 50 7 58 15 33 36 -8 7 -15 9 -15 5 0 -4 -6 -3 -13 3 -7 6 -12 26 -11 43
2 33 20 50 63 59 13 3 26 11 29 18 5 17 -58 16 -84 -2 -25 -18 -61 -11 -67 13
-6 30 15 60 52 72 20 6 40 15 44 19 12 11 -57 22 -87 14 -23 -5 -24 -4 -24 39
0 25 -6 55 -12 67 -6 12 -9 28 -6 35 2 7 -4 30 -14 50 -10 19 -21 58 -25 85
-6 42 -4 50 9 50 12 0 16 -10 16 -44 0 -37 5 -48 30 -69 16 -14 30 -30 30 -35
0 -4 16 -27 35 -49 19 -23 35 -46 35 -52 0 -6 15 -25 33 -41 27 -25 30 -31 17
-40 -12 -7 -7 -10 18 -10 26 0 34 5 42 26 14 35 13 44 -5 44 -33 0 -169 169
-151 187 4 4 28 -15 54 -43 70 -73 84 -83 143 -104 30 -10 72 -26 94 -35 43
-18 41 -14 -20 32 -59 44 -100 70 -92 56 5 -7 1 -9 -12 -6 -10 2 -18 12 -17
21 1 10 -18 26 -48 42 -27 14 -72 47 -100 75 -28 27 -64 54 -81 60 -27 9 -30
14 -31 55 -1 25 7 64 17 87 27 61 25 70 -16 65 -19 -2 -35 -1 -35 2 0 3 26 18
57 31 60 27 113 26 113 -1 0 -22 28 -17 41 8 9 18 8 24 -6 34 -10 8 -15 20
-11 32 4 12 -2 28 -19 46 -37 40 -24 43 30 7 25 -17 49 -31 53 -31 4 0 18 -11
32 -24 14 -14 42 -41 62 -61 23 -22 40 -50 44 -71 3 -19 10 -37 15 -40 5 -3 9
-16 9 -30 0 -13 4 -24 9 -24 10 0 34 -76 45 -142 4 -21 11 -38 15 -38 5 0 11
-10 14 -21 5 -17 11 -20 30 -15 32 8 52 -16 65 -79 23 -110 59 -161 166 -240
74 -54 117 -105 148 -172 19 -41 22 -66 23 -173 0 -109 -3 -132 -24 -182 -21
-53 -22 -59 -7 -73 9 -9 16 -22 16 -29 0 -6 13 -27 30 -46 l29 -35 1 291 0
292 -76 73 c-73 71 -162 191 -200 271 -16 34 -16 38 0 62 9 14 24 26 34 27 12
0 11 3 -6 10 -13 5 -21 13 -18 18 3 5 -1 11 -9 15 -8 3 -15 16 -15 28 0 13 -6
43 -14 68 -11 38 -14 41 -17 20 -4 -24 -5 -24 -25 11 -23 39 -45 100 -24 67
16 -26 30 -22 30 7 0 52 23 20 55 -76 12 -37 14 -39 12 -13 -2 23 0 31 10 27
11 -4 11 0 1 23 -6 16 -18 36 -25 45 -7 9 -10 19 -7 22 4 4 -1 9 -10 13 -9 3
-16 15 -16 25 0 17 -7 19 -62 18 -35 -1 -73 -8 -86 -16 -19 -12 -23 -12 -28 1
-3 8 -2 21 2 27 5 9 2 10 -9 6 -10 -4 -17 -1 -17 5 0 6 -6 19 -14 27 -24 27
-104 193 -100 206 3 7 -2 15 -11 19 -12 4 -14 14 -10 39 5 24 2 37 -9 46 -9 8
-16 19 -16 26 0 7 -7 15 -15 19 -8 3 -15 14 -15 25 0 11 -4 23 -10 26 -5 3
-10 14 -10 23 0 9 -11 30 -24 47 -27 33 -24 55 5 48 10 -3 19 -1 19 4 0 10
-159 167 -242 238 -26 23 -96 88 -155 145 -60 58 -167 159 -238 226 -336 311
-448 417 -550 515 -60 58 -130 123 -154 145 -24 21 -69 63 -101 94 -58 56
-210 196 -286 263 -44 39 -65 45 -82 24 -8 -9 -6 -21 9 -42 10 -17 24 -47 29
-67 6 -21 17 -38 25 -38 8 0 16 -16 20 -39 4 -22 13 -45 21 -52 8 -6 14 -23
14 -37 0 -14 8 -34 17 -44 13 -14 14 -21 5 -30 -18 -18 -14 -46 8 -65 24 -21
24 -21 5 -87 -17 -59 -25 -64 -150 -90 -147 -32 -210 -47 -230 -56 -11 -5 -45
-14 -75 -20 -30 -7 -92 -23 -138 -36 -92 -27 -115 -50 -127 -126 -4 -22 -11
-38 -17 -36 -5 2 -24 38 -43 80 -31 72 -120 225 -170 293 -23 31 -35 110 -51
319 -6 70 -4 90 7 97 21 13 26 11 33 -15 3 -13 22 -38 41 -55 28 -24 45 -31
76 -31 44 0 213 42 266 66 17 8 37 14 45 14 7 1 38 10 68 21 l55 20 -45 -4
c-25 -2 -53 -7 -62 -11 -11 -5 -18 -4 -18 2 0 6 6 12 13 15 6 2 3 3 -8 1 -15
-2 -24 5 -34 27 -13 29 -14 29 -32 13 -18 -16 -19 -16 -20 17 0 19 -3 28 -6
21 -2 -6 -9 -10 -14 -7 -5 4 -6 0 -3 -8 3 -8 -1 -14 -9 -14 -9 0 -12 7 -9 19
2 10 -1 18 -7 18 -7 0 -10 3 -7 8 2 4 -2 18 -10 32 -10 19 -13 21 -14 8 0 -20
-30 -25 -30 -6 0 6 -3 8 -6 5 -4 -3 -15 -2 -25 4 -13 6 -19 6 -19 0 0 -6 -7
-8 -15 -5 -8 4 -12 10 -9 15 3 5 -3 12 -13 16 -10 3 -22 12 -26 20 -4 7 -14
13 -22 13 -8 0 -30 25 -50 55 -21 30 -40 53 -45 50 -4 -3 -11 15 -14 39 -7 44
-29 86 -40 75 -7 -7 21 -371 30 -401 4 -13 0 -18 -15 -18 -16 0 -21 9 -26 48
-9 62 -20 107 -56 224 -29 95 -30 98 -12 125 17 26 17 27 0 14 -15 -12 -17
-12 -11 4 5 12 4 16 -3 12 -6 -4 -16 12 -23 38 -9 32 -26 56 -59 86 -41 35
-50 39 -81 34 -19 -3 -51 -6 -70 -6 -19 0 -80 -6 -134 -14 -55 -8 -141 -15
-193 -15 -51 0 -93 -3 -93 -7 0 -4 10 -17 22 -30 20 -21 21 -32 19 -121 -2
-106 -8 -142 -23 -142 -5 0 -7 3 -5 8 3 4 -6 8 -20 8 -79 5 -263 241 -279 358
-6 39 -4 46 17 59 13 9 50 22 82 31 33 8 62 17 65 21 4 4 5 120 3 258 -3 139
-4 353 -3 477 0 124 1 280 1 347 1 98 4 125 17 138 14 14 15 49 8 338 -4 177
-8 509 -8 737 l-1 415 -1527 2 c-841 2 -1528 0 -1528 -4z m1340 -94 c91 -16
98 -18 81 -28 -15 -10 -152 -7 -193 4 -19 5 -28 14 -28 27 0 22 -12 22 140 -3z
m765 -2 c4 -13 5 -43 3 -68 -2 -37 -7 -45 -25 -47 -44 -6 -63 14 -63 68 0 52
14 69 57 70 15 0 24 -7 28 -23z m-195 -62 c0 -24 -4 -47 -10 -50 -5 -3 -51 -7
-102 -8 -93 -2 -93 -1 -93 23 0 18 9 29 30 39 38 19 157 50 168 44 4 -2 7 -24
7 -48z m-357 18 c66 -18 75 -29 56 -71 -10 -23 -25 -33 -68 -47 -87 -27 -103
-40 -95 -79 5 -30 2 -37 -24 -56 -25 -18 -29 -27 -23 -49 4 -14 16 -28 27 -30
31 -5 44 -21 55 -67 15 -58 39 -65 80 -25 22 23 31 43 36 81 6 55 28 84 44 59
15 -23 10 -54 -11 -72 -23 -19 -23 -27 -10 -117 19 -125 29 -223 24 -232 -3
-5 -21 0 -40 11 -18 11 -36 17 -38 12 -3 -4 2 -27 10 -51 8 -24 13 -49 10 -56
-3 -7 2 -15 10 -18 8 -3 14 -18 14 -34 0 -29 39 -82 59 -82 6 0 19 10 30 22
17 17 23 19 36 8 27 -23 18 -60 -26 -100 -34 -31 -51 -38 -93 -42 -28 -2 -63
-12 -78 -22 -26 -17 -26 -18 -10 -45 17 -31 76 -51 147 -50 30 1 43 -4 53 -20
26 -38 82 -24 82 21 0 42 17 68 44 68 46 0 141 -59 214 -133 41 -40 78 -80 83
-88 16 -26 10 -57 -13 -64 -44 -14 -68 -45 -68 -91 0 -24 5 -46 10 -49 21 -13
9 -41 -32 -77 -24 -20 -40 -40 -36 -43 7 -8 14 -5 58 20 27 16 126 20 134 6 3
-5 8 -112 11 -237 3 -126 12 -296 20 -379 7 -82 16 -210 20 -284 9 -163 14
-171 104 -171 37 0 63 5 68 13 4 6 8 88 8 181 l0 169 45 16 c63 23 120 79 120
119 0 35 -6 37 -60 21 -26 -8 -43 -8 -56 -1 -18 10 -17 11 7 21 37 13 86 76
94 120 8 44 40 98 66 111 10 6 26 25 36 43 21 42 21 194 -1 256 -20 55 -20
105 0 178 9 32 20 76 24 98 4 22 15 54 24 70 9 17 16 40 16 51 0 30 28 53 40
34 5 -8 10 -192 10 -410 7 -1654 7 -1850 -4 -1851 -6 0 -35 0 -63 1 -52 1 -63
-6 -43 -26 6 -6 17 -58 25 -117 7 -59 16 -111 19 -116 3 -5 15 -89 26 -188 21
-192 28 -225 66 -348 14 -44 29 -109 34 -145 5 -36 23 -117 40 -180 26 -99 31
-134 33 -255 2 -121 0 -144 -16 -167 -28 -41 -44 -26 -46 45 -1 43 -6 66 -18
77 -12 12 -14 12 -8 1 15 -27 13 -110 -3 -116 -13 -5 -12 -8 4 -21 10 -8 15
-17 9 -20 -27 -12 -35 -22 -29 -37 3 -9 13 -17 21 -17 8 0 11 -5 8 -10 -4 -6
-15 -8 -25 -5 -14 5 -17 1 -14 -24 3 -22 0 -29 -10 -25 -13 5 -8 76 8 102 4 7
4 21 0 30 -10 24 -14 192 -4 192 5 0 1 14 -7 32 -15 29 -15 32 2 45 15 11 16
13 3 13 -11 0 -19 18 -27 63 -20 108 -87 384 -112 464 -22 70 -56 259 -55 305
0 26 -3 48 -7 48 -5 0 -7 10 -6 23 1 12 -1 29 -4 37 -3 8 -8 40 -11 70 -8 88
-12 111 -31 183 -10 37 -22 67 -26 67 -19 0 -60 -239 -80 -475 -5 -60 -14
-146 -20 -190 -25 -194 -21 -502 7 -702 6 -38 4 -43 -13 -43 -16 0 -25 19 -52
106 -134 423 -254 664 -416 830 -112 115 -203 164 -307 164 -96 0 -195 -56
-234 -132 -40 -78 -33 -104 67 -280 20 -35 50 -88 67 -118 16 -30 53 -95 81
-143 28 -49 51 -92 51 -95 0 -4 11 -23 23 -42 13 -19 41 -69 63 -110 21 -41
70 -119 107 -172 38 -54 67 -103 65 -110 -3 -7 4 -17 15 -23 19 -10 46 -50 87
-130 11 -22 36 -67 56 -100 67 -111 88 -150 86 -157 -1 -5 3 -8 8 -8 6 0 18
-17 28 -37 9 -21 23 -44 30 -51 22 -23 32 -50 26 -66 -4 -10 -1 -16 9 -16 8 0
17 -8 20 -17 3 -10 20 -43 38 -73 36 -61 155 -287 193 -365 21 -43 56 -117
176 -370 25 -52 70 -166 70 -177 0 -17 -19 -7 -26 15 -7 21 -8 20 -21 -12 -11
-26 -11 -40 -2 -68 9 -28 9 -37 -2 -44 -8 -5 -17 -3 -21 4 -6 9 -8 8 -8 -3 0
-13 -2 -13 -9 -1 -6 9 -6 24 0 38 13 35 10 42 -6 13 -16 -28 -21 -9 -5 21 11
20 1 26 -16 9 -11 -11 -25 14 -104 185 -23 50 -52 104 -64 120 -29 39 -96 166
-96 182 0 27 -76 183 -133 273 -33 52 -76 126 -95 165 -19 38 -67 120 -107
180 -40 61 -87 146 -104 189 -56 139 -115 239 -192 322 -53 57 -104 158 -112
222 -5 41 -38 99 -98 173 -12 15 -25 48 -30 74 -5 25 -18 60 -30 76 -15 21
-22 47 -23 83 -2 53 -13 78 -49 104 -9 7 -27 32 -40 54 -12 22 -28 51 -34 63
-9 15 -10 32 -4 53 6 19 6 34 0 37 -5 4 -9 0 -9 -7 0 -7 -7 -32 -16 -55 -12
-32 -28 -49 -61 -69 l-45 -26 -38 37 c-34 33 -38 44 -54 133 -9 53 -18 106
-21 117 -4 15 8 29 48 58 28 20 78 62 111 91 58 54 58 55 53 103 -2 26 -13 98
-25 158 -13 67 -25 194 -32 326 -6 119 -15 254 -19 300 -5 46 -12 199 -16 339
l-7 255 252 0 c212 0 252 2 260 15 5 8 10 18 10 22 0 12 -40 19 -117 21 -39 1
-75 5 -79 10 -4 4 -19 7 -34 7 -15 0 -39 10 -54 21 -15 12 -28 20 -30 18 -1
-2 -10 -16 -19 -32 -17 -27 -20 -27 -94 -24 -92 5 -103 16 -103 98 l0 56 58
17 c31 9 133 23 226 31 93 8 174 19 180 24 6 4 23 11 37 14 14 4 41 22 60 42
19 19 41 35 50 35 14 0 59 35 59 45 0 3 -10 4 -22 2 -17 -1 -24 4 -26 21 -2
12 -8 22 -13 22 -23 0 -7 48 26 77 19 17 35 40 35 51 0 11 3 27 6 36 5 13 -1
16 -26 16 -30 0 -31 2 -28 37 2 20 8 38 14 40 18 6 44 -25 44 -52 0 -28 42
-59 58 -43 6 6 8 26 5 44 -4 27 -2 34 10 34 23 0 39 34 25 48 -17 17 -36 15
-50 -7 -12 -19 -12 -19 -23 2 -7 15 -20 22 -39 22 -16 0 -31 7 -37 18 -6 9
-16 17 -23 17 -17 0 -46 64 -46 101 0 38 -44 115 -70 122 -23 6 -30 0 -30 -25
0 -16 -8 -13 -47 19 -53 42 -71 63 -93 107 -14 28 -19 31 -60 29 -248 -11
-260 -7 -260 80 0 36 4 49 18 54 22 8 106 65 110 76 2 4 12 7 22 7 11 0 30 5
44 11 28 13 76 4 76 -14 0 -7 -20 -28 -44 -47 -25 -19 -50 -46 -58 -59 -11
-20 -10 -25 6 -37 10 -7 38 -16 62 -20 36 -5 48 -2 78 21 40 31 78 90 78 122
0 12 -11 36 -25 53 -15 17 -24 37 -21 45 8 19 -25 32 -36 14 -7 -10 -13 -8
-30 12 -26 30 -42 68 -34 80 3 6 3 21 0 35 -5 19 -13 24 -36 24 -22 0 -30 5
-30 18 0 9 -16 28 -35 41 -19 13 -35 27 -35 32 0 24 -31 5 -58 -36 -40 -62
-52 -79 -52 -72 0 12 39 85 49 91 17 11 103 197 108 235 7 48 -7 74 -59 111
-44 33 -78 39 -78 15 0 -8 -4 -15 -9 -15 -19 0 -30 193 -12 205 6 3 60 8 121
12 73 4 116 11 124 19 15 17 29 17 99 -3z m358 -290 c12 -12 25 -39 28 -60 6
-37 7 -38 55 -43 l49 -5 29 -85 c15 -47 34 -101 40 -120 7 -19 20 -41 30 -48
26 -19 26 -164 0 -192 -19 -20 -68 -18 -55 3 4 6 -2 8 -15 5 -12 -4 -20 -2
-17 2 3 5 -27 12 -66 16 -53 5 -73 11 -82 25 -7 11 -21 19 -32 19 -29 0 -73
22 -80 39 -3 8 -10 94 -15 190 -5 97 -10 177 -10 179 0 1 -11 7 -25 12 -20 8
-25 16 -25 43 0 19 3 37 8 41 4 4 42 6 84 4 63 -2 82 -7 99 -25z m-583 -336
c7 3 12 -4 12 -16 0 -27 -31 -28 -53 -3 -20 21 -12 35 12 23 9 -5 22 -6 29 -4z
m828 -355 c15 -10 28 -128 15 -136 -14 -9 -122 95 -119 114 2 9 18 17 43 21
22 3 42 7 45 7 3 1 10 -2 16 -6z m-886 -245 c49 -33 207 -117 219 -117 6 0 -8
17 -31 38 -67 58 -71 63 -64 69 17 18 69 4 112 -30 26 -20 53 -37 60 -37 7 0
17 -8 23 -17 8 -15 12 -16 22 -5 21 20 46 14 69 -18 11 -16 33 -35 48 -42 15
-7 28 -20 30 -28 2 -15 -42 -42 -53 -32 -11 11 -55 13 -55 3 0 -6 -10 -19 -22
-31 -17 -16 -19 -23 -10 -32 17 -17 15 -23 -13 -36 -44 -20 -125 -12 -125 13
0 7 5 15 12 17 7 3 9 14 5 30 -5 20 -15 27 -42 32 -44 9 -58 0 -52 -30 6 -32
-3 -30 -57 11 -26 19 -49 35 -52 35 -11 0 -36 31 -30 37 3 3 28 -4 57 -16 57
-25 73 -22 38 8 -13 11 -41 34 -62 52 -31 26 -40 30 -48 18 -5 -8 -9 -18 -9
-22 0 -5 -5 -5 -11 -2 -6 4 -9 21 -8 39 1 17 -1 43 -6 58 -7 29 -1 58 12 58 5
0 24 -10 43 -23z m0 -260 c0 -5 -4 -5 -10 -2 -5 3 -10 1 -10 -5 0 -6 -4 -8
-10 -5 -5 3 -10 21 -10 38 l0 32 20 -25 c11 -14 20 -29 20 -33z m540 -50 c0
-24 -5 -48 -11 -54 -8 -8 -6 -19 5 -42 14 -27 14 -31 2 -31 -8 0 -17 4 -21 10
-3 5 -12 7 -20 4 -17 -7 -35 32 -35 73 0 24 50 81 73 83 4 0 7 -19 7 -43z
m-533 -4 c16 -16 38 -27 49 -25 11 1 58 -16 104 -38 116 -56 126 -62 122 -82
-2 -10 4 -28 12 -40 20 -28 21 -107 2 -152 -30 -73 -69 -92 -131 -66 -11 5
-29 10 -39 12 -10 2 -24 12 -30 23 -6 10 -20 27 -31 36 -16 14 -17 19 -6 33 7
9 9 16 3 16 -5 0 -15 -6 -21 -14 -18 -22 -60 -26 -72 -7 -9 14 -10 14 -5 -1 3
-10 4 -18 2 -18 -3 0 -11 -3 -20 -6 -12 -4 -16 0 -16 15 0 12 3 21 8 21 4 0 7
21 8 48 1 93 17 272 24 272 5 0 21 -12 37 -27z m447 -123 c5 -5 2 -19 -8 -34
-18 -29 -36 -34 -36 -11 0 9 -7 18 -15 21 -8 4 -15 15 -15 25 0 16 5 18 33 14
17 -4 36 -10 41 -15z m918 -143 c26 -13 26 -30 0 -59 -24 -28 -32 -21 -32 27
0 51 -1 50 32 32z m-892 -82 c-7 -9 -15 -13 -17 -11 -7 7 7 26 19 26 6 0 6 -6
-2 -15z m-1693 -1317 c-3 -8 -6 -5 -6 6 -1 11 2 17 5 13 3 -3 4 -12 1 -19z
m27 -67 c-13 -13 -27 -21 -30 -18 -10 9 6 47 19 44 7 -1 11 7 9 18 -4 20 -3
20 11 0 14 -18 13 -22 -9 -44z m865 -91 c1 -13 0 -13 -9 0 -5 8 -10 11 -11 5
-1 -5 -2 -14 -4 -20 -1 -5 -3 -22 -3 -38 -2 -27 -3 -27 -26 -12 -22 14 -23 20
-14 46 5 16 16 29 23 29 7 0 16 12 20 28 l8 27 7 -25 c5 -14 8 -32 9 -40z
m-569 1 c0 -5 -7 -14 -15 -21 -8 -7 -15 -16 -15 -21 0 -18 -72 -109 -86 -109
-8 0 -17 -7 -20 -15 -6 -14 -34 -22 -34 -9 0 3 13 17 29 32 16 15 32 37 36 50
3 12 12 22 19 22 6 0 23 18 36 40 23 36 50 53 50 31z m496 -147 c-9 -6 -16
-20 -16 -31 0 -38 -28 -88 -79 -140 -27 -29 -57 -53 -67 -53 -12 0 -14 4 -7
13 5 6 25 32 44 57 19 25 37 47 40 50 4 3 9 15 13 28 4 12 16 27 27 33 11 5
17 14 14 20 -4 5 4 26 17 47 22 35 23 36 26 13 2 -15 -3 -30 -12 -37z m-1646
-4 c0 -5 -5 -10 -11 -10 -5 0 -7 5 -4 10 3 6 8 10 11 10 2 0 4 -4 4 -10z
m1296 -76 c-3 -9 -6 -19 -6 -24 0 -4 -9 -10 -20 -13 -24 -6 -25 -2 -2 28 19
28 37 33 28 9z m-106 -144 c0 -5 -5 -10 -11 -10 -5 0 -7 5 -4 10 3 6 8 10 11
10 2 0 4 -4 4 -10z m280 -14 c0 -2 -7 -7 -16 -10 -8 -3 -12 -2 -9 4 6 10 25
14 25 6z m-660 -76 c0 -5 -2 -10 -4 -10 -3 0 -8 5 -11 10 -3 6 -1 10 4 10 6 0
11 -4 11 -10z m4854 -110 c-6 -6 -26 -12 -45 -14 -19 -2 -25 -1 -14 1 11 3 24
9 30 14 13 13 42 12 29 -1z m-114 -30 c-14 -4 -43 -8 -65 -8 -38 0 -39 1 -10
8 17 4 46 8 65 8 32 0 33 -1 10 -8z m135 -109 c3 -5 -3 -14 -12 -20 -15 -9
-15 -12 -4 -20 11 -7 10 -10 -4 -18 -15 -9 -19 -26 -15 -85 1 -9 7 -22 15 -28
11 -9 7 -19 -25 -52 l-39 -40 -70 4 c-38 1 -67 -1 -64 -6 3 -4 -68 -7 -161 -5
-101 3 -166 8 -166 14 0 6 7 22 14 37 8 16 25 57 37 93 20 60 24 66 58 74 62
15 284 51 331 54 25 1 57 3 72 5 15 1 29 -2 33 -7z m-183 -391 c20 1 45 -3 55
-9 10 -5 53 -17 96 -27 60 -14 87 -26 115 -52 21 -18 31 -31 25 -27 -8 4 -13
0 -13 -9 0 -9 6 -16 13 -16 16 0 57 -64 57 -89 0 -11 -8 -25 -17 -30 -17 -10
-17 -10 0 -11 9 0 17 5 17 10 0 6 5 10 10 10 18 0 11 -16 -13 -29 -20 -10 -24
-21 -24 -58 0 -36 -5 -50 -22 -64 -12 -10 -20 -23 -17 -28 14 -22 13 -100 0
-105 -8 -3 -11 -12 -7 -22 4 -11 2 -15 -4 -11 -6 4 -16 0 -23 -8 -8 -10 -9
-15 -1 -15 7 0 8 -8 2 -23 -5 -13 -5 -30 -1 -37 5 -8 4 -22 -1 -32 -8 -14 -4
-27 17 -54 23 -29 25 -37 13 -45 -8 -5 -20 -9 -26 -9 -27 0 -13 -30 15 -31
l27 -2 -27 -4 c-23 -4 -28 -9 -28 -34 0 -24 4 -29 25 -29 14 0 25 -4 25 -10 0
-5 -3 -10 -7 -10 -5 0 -9 -11 -9 -25 -2 -33 -21 -55 -48 -56 -17 -1 -17 -2 -3
-6 12 -3 15 -11 11 -28 -5 -20 -1 -27 20 -36 14 -7 26 -18 26 -25 0 -8 6 -11
14 -8 11 4 16 -4 18 -28 3 -32 4 -33 41 -30 36 4 38 3 27 -17 -6 -12 -20 -21
-30 -21 -32 0 -23 -17 18 -33 20 -9 29 -16 20 -16 -10 -1 -18 -8 -18 -16 0 -8
-7 -23 -15 -32 -53 -62 -55 -64 -75 -53 -10 5 -23 10 -29 10 -17 0 -13 -31 6
-53 17 -18 17 -19 0 -32 -23 -16 -22 -31 3 -38 13 -3 20 -13 20 -29 0 -18 -2
-20 -10 -8 -7 11 -10 5 -10 -25 0 -30 -3 -36 -10 -25 -5 8 -10 11 -10 5 -1
-11 -60 165 -60 178 0 4 -18 50 -40 101 -39 93 -76 172 -225 481 -42 88 -86
183 -97 210 -11 28 -48 106 -83 175 -122 241 -156 320 -150 339 3 11 25 28 48
40 38 18 55 20 187 16 80 -3 162 -5 182 -5z m1669 -281 c52 -41 70 -78 64
-126 -13 -93 -19 -113 -58 -198 -63 -139 -87 -175 -117 -174 -14 0 -35 -2 -47
-6 -21 -7 -23 -4 -23 29 0 20 7 44 15 54 58 65 80 93 113 141 35 51 37 58 35
125 -1 39 -8 91 -17 116 -17 48 -20 70 -10 70 3 0 24 -14 45 -31z m-3951 -139
c0 -5 -4 -10 -10 -10 -5 0 -10 5 -10 10 0 6 5 10 10 10 6 0 10 -4 10 -10z
m-10 -40 c0 -5 -4 -10 -10 -10 -5 0 -10 5 -10 10 0 6 5 10 10 10 6 0 10 -4 10
-10z m-1404 -188 c2 -31 6 -92 9 -135 5 -59 3 -84 -8 -100 -7 -12 -17 -42 -20
-67 -8 -52 -16 -59 84 78 33 46 62 82 64 80 3 -2 6 -29 9 -59 2 -29 7 -61 10
-69 5 -13 -9 -47 -51 -125 -6 -11 -19 -40 -29 -65 -29 -73 -32 -75 -74 -30
-21 22 -47 40 -59 40 -21 0 -30 28 -14 44 14 13 21 160 13 259 -3 27 9 205 14
232 3 11 5 22 5 24 1 2 11 -8 22 -23 15 -19 23 -45 25 -84z m1774 -57 c-14
-17 -35 -21 -25 -5 3 6 0 10 -7 11 -7 1 -2 4 12 8 31 10 36 6 20 -14z m104
-42 c3 -25 6 -99 6 -164 0 -91 -3 -121 -15 -133 -8 -8 -15 -18 -15 -23 0 -12
-37 -33 -44 -26 -9 9 -7 25 2 20 4 -3 8 72 10 167 1 116 -1 166 -8 156 -13
-21 -13 -4 1 23 27 51 54 42 63 -20z m-110 -29 c4 -9 4 -19 1 -22 -3 -3 -5 0
-5 6 0 7 -7 12 -16 12 -8 0 -12 5 -9 10 9 15 22 12 29 -6z m3476 -24 c0 -5 -4
-10 -10 -10 -5 0 -10 5 -10 10 0 6 5 10 10 10 6 0 10 -4 10 -10z m-5313 -52
c-3 -8 -6 -5 -6 6 -1 11 2 17 5 13 3 -3 4 -12 1 -19z m1863 -118 c0 -5 -7 -10
-16 -10 -8 0 -12 5 -9 10 3 6 10 10 16 10 5 0 9 -4 9 -10z m-1870 -16 c0 -8
-19 -13 -24 -6 -3 5 1 9 9 9 8 0 15 -2 15 -3z m4064 -40 c5 -14 4 -15 -9 -4
-17 14 -19 20 -6 20 5 0 12 -7 15 -16z m-2209 -4 c3 -6 -4 -10 -17 -10 -18 0
-20 2 -8 10 19 12 18 12 25 0z m-1925 -19 c0 -5 -15 -13 -32 -17 -18 -3 -42
-13 -54 -21 -16 -10 -24 -11 -29 -3 -8 13 -11 12 45 32 54 19 70 21 70 9z
m1927 -19 c-11 -2 -16 -9 -13 -18 3 -8 2 -14 -3 -14 -5 0 -11 9 -14 19 -5 20
18 33 38 22 6 -3 2 -7 -8 -9z m1691 -152 c63 -166 109 -316 131 -435 7 -33 16
-78 21 -100 29 -129 78 -432 110 -675 32 -251 40 -297 75 -440 70 -284 78
-362 73 -717 -5 -336 -4 -330 -69 -673 -29 -151 -54 -240 -69 -240 -4 0 -31
34 -60 75 -62 86 -96 105 -192 105 -70 0 -136 -26 -168 -67 -11 -15 -22 -24
-23 -22 -2 2 3 119 11 259 12 212 13 293 2 483 -9 166 -9 231 -1 241 6 7 53
37 104 65 128 73 125 68 74 126 -80 94 -85 98 -120 90 -67 -14 -62 -31 -59
200 2 116 9 278 15 360 6 83 12 285 13 450 1 318 16 627 33 685 5 19 15 91 21
160 14 177 21 220 31 195 4 -11 25 -67 47 -125z m-3544 78 c7 -5 4 -8 -6 -8
-12 0 -18 7 -17 23 0 15 2 17 6 7 3 -8 11 -18 17 -22z m1954 -85 c32 -240 35
-311 18 -337 -9 -14 -16 -37 -16 -51 0 -16 -6 -25 -15 -25 -8 0 -15 5 -15 10
0 6 -15 10 -32 10 -31 1 -32 1 -14 15 20 15 20 15 0 15 -17 0 -17 2 5 19 l25
19 -30 -5 c-28 -4 -28 -4 -10 11 20 16 20 16 0 17 -16 1 -17 2 -1 6 9 2 17 8
17 13 0 5 -8 11 -17 13 -15 4 -15 6 5 12 27 9 30 25 2 18 -11 -3 -20 -1 -20 5
0 5 11 13 25 16 17 4 25 13 25 27 0 19 -4 21 -30 16 -16 -4 -30 -2 -30 3 0 5
12 10 27 12 14 2 29 10 31 18 4 13 3 13 -11 2 -12 -10 -21 -11 -34 -3 -17 10
-16 10 4 11 21 0 40 16 30 26 -2 2 -17 0 -32 -6 -15 -6 -30 -8 -33 -6 -3 3 7
10 21 15 35 14 50 43 37 76 -6 15 -6 24 -1 20 5 -3 9 7 9 23 -1 25 27 72 42
72 4 0 11 -39 18 -87z m-101 71 c-3 -3 -12 -4 -19 -1 -8 3 -5 6 6 6 11 1 17
-2 13 -5z m-1850 -26 c-3 -8 -6 -5 -6 6 -1 11 2 17 5 13 3 -3 4 -12 1 -19z
m1848 -18 c3 -5 2 -10 -4 -10 -5 0 -13 5 -16 10 -3 6 -2 10 4 10 5 0 13 -4 16
-10z m-1756 -44 c-6 -21 -13 -36 -16 -33 -3 3 0 22 7 42 16 47 23 40 9 -9z
m4442 -8 c0 -13 3 -17 6 -10 6 14 43 16 43 2 0 -5 -4 -10 -10 -10 -5 0 -10 -5
-10 -11 0 -7 10 -9 28 -5 24 6 25 5 10 -7 -10 -8 -15 -17 -11 -21 4 -3 -8 -1
-25 5 -18 6 -32 15 -32 20 0 5 -11 7 -24 3 -28 -7 -37 4 -29 34 8 31 53 31 54
0z m-2671 3 c0 -9 -27 -41 -35 -41 -2 0 2 11 8 25 12 25 27 34 27 16z m2350
-21 c23 -7 24 -8 5 -15 -37 -13 -45 -14 -60 -9 -8 4 -15 12 -15 20 0 15 29 17
70 4z m-4223 -32 c-3 -7 -5 -2 -5 12 0 14 2 19 5 13 2 -7 2 -19 0 -25z m4463
22 c0 -5 -8 -10 -17 -10 -15 0 -16 2 -3 10 19 12 20 12 20 0z m-4390 -145
c-14 -85 -20 -108 -27 -102 -3 3 3 52 13 109 10 57 20 94 22 83 3 -11 -1 -51
-8 -90z m5310 66 c0 -19 -28 -37 -39 -25 -3 4 0 9 7 11 6 3 12 11 12 19 0 8 5
14 10 14 6 0 10 -9 10 -19z m-5780 -55 c0 -2 -7 -7 -16 -10 -8 -3 -12 -2 -9 4
6 10 25 14 25 6z m2295 -16 c-3 -5 -13 -10 -21 -10 -8 0 -14 5 -14 10 0 6 9
10 21 10 11 0 17 -4 14 -10z m-1925 -52 c0 -17 -3 -28 -7 -25 -3 4 -12 -1 -19
-11 -12 -15 -13 -14 -14 11 0 27 17 56 33 57 4 0 7 -14 7 -32z m-53 -55 c-3
-10 -5 -4 -5 12 0 17 2 24 5 18 2 -7 2 -21 0 -30z m5733 27 c0 -5 -4 -10 -10
-10 -5 0 -10 5 -10 10 0 6 5 10 10 10 6 0 10 -4 10 -10z m-5762 -41 c-7 -5 -8
-9 -3 -9 6 0 3 -4 -5 -9 -26 -17 -31 0 -8 32 19 27 23 29 26 13 2 -10 -2 -22
-10 -27z m4135 -82 c8 -6 7 -7 -3 -4 -10 2 -15 18 -16 48 -1 44 -1 44 3 4 3
-22 10 -44 16 -48z m14 31 c-3 -8 -6 -5 -6 6 -1 11 2 17 5 13 3 -3 4 -12 1
-19z m-4013 -15 c-5 -16 -9 -132 -9 -259 l0 -230 -36 -60 c-42 -69 -56 -106
-39 -102 45 11 -7 -61 -75 -103 -40 -25 -46 -24 -39 9 4 18 2 23 -4 14 -12
-18 -37 11 -28 34 4 9 1 23 -6 32 -7 8 -18 33 -25 56 l-11 41 -1 -40 c-2 -53
-17 -79 -26 -43 -4 14 -5 40 -3 59 2 29 7 34 26 32 16 -2 22 2 22 18 0 28 18
59 34 59 8 0 16 6 19 14 5 13 0 13 -39 1 -49 -15 -61 -3 -14 14 17 5 30 14 30
19 0 5 11 14 25 20 14 6 25 16 25 21 0 4 23 32 51 61 41 42 48 54 38 66 -6 8
-9 18 -5 21 4 4 10 2 15 -5 11 -19 51 42 51 78 0 18 -3 30 -7 28 -49 -24 -63
-32 -63 -40 0 -4 -7 -8 -15 -8 -8 0 -15 -4 -15 -10 0 -5 -7 -10 -15 -10 -9 0
-26 -10 -38 -23 -26 -28 -82 -57 -110 -57 -11 0 -28 -6 -36 -14 -20 -17 -79
-26 -106 -16 -17 6 -15 9 15 22 19 9 55 21 79 29 24 7 50 20 58 28 13 13 24
16 66 20 5 1 6 5 3 9 -2 4 10 14 27 22 18 7 46 24 63 37 17 13 34 23 38 23 4
0 14 6 22 14 7 8 18 16 24 18 5 1 13 31 16 66 4 34 11 62 17 62 5 0 6 -11 1
-27z m1891 -23 c-3 -5 -15 -10 -26 -10 -11 0 -17 5 -14 10 3 6 15 10 26 10 11
0 17 -4 14 -10z m2142 -32 c-3 -7 -5 -2 -5 12 0 14 2 19 5 13 2 -7 2 -19 0
-25z m-2088 11 c-10 -6 -10 -9 -1 -9 19 0 14 -25 -8 -45 -18 -17 -25 -14 -21
8 1 5 -13 6 -30 2 -22 -5 -29 -4 -25 4 4 6 16 11 27 11 10 0 19 4 19 10 0 5
-14 7 -32 3 -23 -4 -30 -2 -23 5 10 10 34 15 84 19 18 1 20 -1 10 -8z m-54
-69 c-3 -5 -13 -10 -21 -10 -8 0 -14 5 -14 10 0 6 9 10 21 10 11 0 17 -4 14
-10z m17 -39 c-2 -8 3 -18 10 -22 21 -14 32 -10 19 5 -10 12 -8 13 9 9 25 -7
36 -25 44 -79 6 -33 4 -43 -8 -47 -9 -4 -16 -1 -16 6 0 9 -2 9 -8 -1 -5 -7
-13 7 -22 40 -7 29 -18 56 -24 60 -17 12 -38 9 -30 -4 4 -7 3 -8 -4 -4 -18 11
-14 26 6 27 13 0 12 2 -5 9 -31 13 -29 22 5 18 17 -2 26 -8 24 -17z m3528 -61
c0 -5 -2 -10 -4 -10 -3 0 -8 5 -11 10 -3 6 -1 10 4 10 6 0 11 -4 11 -10z
m-3538 -37 c-6 -2 -10 -8 -7 -13 3 -4 -2 -10 -10 -14 -10 -4 -15 1 -15 14 0
14 7 20 23 19 12 0 16 -3 9 -6z m-12 -57 c0 -8 6 -17 13 -19 7 -4 6 -6 -4 -6
-9 -1 -19 8 -22 19 -3 11 -1 20 4 20 5 0 9 -6 9 -14z m114 -71 c3 -36 0 -45
-10 -41 -8 3 -14 1 -14 -4 0 -5 -6 -7 -14 -4 -17 7 -16 22 7 54 9 13 17 31 17
39 0 34 12 -1 14 -44z m-98 24 c3 -6 2 -14 -2 -18 -5 -3 -9 -18 -9 -33 1 -15
-3 -24 -7 -22 -11 7 -10 84 1 84 6 0 13 -5 17 -11z m-2582 -44 c9 -24 -4 -45
-28 -45 -19 1 -20 1 -3 11 12 7 16 17 12 30 -7 22 10 26 19 4z m286 -9 c0 -2
-7 -6 -15 -10 -8 -3 -15 -1 -15 4 0 6 7 10 15 10 8 0 15 -2 15 -4z m2268 -73
c-2 -9 -11 -17 -21 -19 -13 -2 -17 4 -15 26 2 24 5 27 21 19 10 -6 17 -17 15
-26z m3702 -129 c0 -2 -7 -4 -15 -4 -8 0 -15 4 -15 10 0 5 7 7 15 4 8 -4 15
-8 15 -10z m-3531 -65 c6 -20 9 -43 6 -51 -5 -12 -12 -10 -36 12 -31 30 -38
60 -14 60 8 0 15 8 15 17 0 25 16 4 29 -38z m-3675 32 c7 -11 -22 -23 -35 -15
-5 3 -7 10 -4 15 8 12 32 12 39 0z m996 -444 c36 -8 93 -21 128 -28 48 -10 58
-15 42 -21 -11 -4 -26 -5 -34 -2 -8 3 -17 1 -21 -5 -3 -6 -25 -11 -48 -11 -35
-1 -39 -2 -23 -12 10 -6 33 -12 50 -13 24 -2 30 -7 28 -21 -2 -11 -4 -25 -4
-33 -1 -10 -18 -12 -81 -9 -76 5 -102 16 -94 43 2 5 -5 14 -16 20 -31 15 -33
35 -4 35 14 0 27 7 31 15 3 8 2 14 -2 13 -16 -3 -61 15 -56 23 3 5 -1 9 -10 9
-16 0 -25 18 -19 37 3 8 14 6 36 -7 18 -9 61 -24 97 -33z m-880 -6 c0 -12 -20
-25 -27 -18 -7 7 6 27 18 27 5 0 9 -4 9 -9z m1123 -38 c-7 -2 -19 -2 -25 0 -7
3 -2 5 12 5 14 0 19 -2 13 -5z m-843 -27 c0 -3 -4 -8 -10 -11 -5 -3 -10 -1
-10 4 0 6 5 11 10 11 6 0 10 -2 10 -4z m-135 -96 c-3 -5 -10 -10 -16 -10 -5 0
-9 5 -9 10 0 6 7 10 16 10 8 0 12 -4 9 -10z m515 -50 c0 -5 -7 -10 -15 -10 -8
0 -15 5 -15 10 0 6 7 10 15 10 8 0 15 -4 15 -10z m-90 -10 c0 -5 -4 -10 -10
-10 -5 0 -10 5 -10 10 0 6 5 10 10 10 6 0 10 -4 10 -10z m3023 -316 c130 -66
156 -210 56 -312 -49 -50 -85 -65 -159 -66 -129 -1 -210 73 -210 193 0 113 95
201 218 201 38 0 76 -6 95 -16z m1964 -369 c0 -8 -4 -12 -9 -9 -5 3 -6 10 -3
15 9 13 12 11 12 -6z m-2053 -231 c28 -11 6 -24 -40 -24 -32 0 -44 4 -44 15 0
16 52 21 84 9z m-134 -24 c0 -5 -6 -10 -14 -10 -8 0 -18 5 -21 10 -3 6 3 10
14 10 12 0 21 -4 21 -10z m-10 -45 c0 -8 -4 -15 -9 -15 -5 0 -11 7 -15 15 -3
9 0 15 9 15 8 0 15 -7 15 -15z m-80 -95 c0 -5 -2 -10 -4 -10 -3 0 -8 5 -11 10
-3 6 -1 10 4 10 6 0 11 -4 11 -10z m50 -129 c0 -15 -38 -20 -44 -5 -4 10 2 14
19 14 14 0 25 -4 25 -9z m-315 -21 c3 -5 1 -10 -4 -10 -6 0 -11 5 -11 10 0 6
2 10 4 10 3 0 8 -4 11 -10z m185 0 c8 -5 11 -12 8 -16 -4 -3 -14 1 -23 10 -18
17 -9 21 15 6z m130 -4 c0 -3 -4 -8 -10 -11 -5 -3 -10 -1 -10 4 0 6 5 11 10
11 6 0 10 -2 10 -4z m2535 -76 c7 -11 -54 -45 -63 -35 -7 7 34 45 49 45 4 0
10 -4 14 -10z m-69 -177 c-10 -10 -19 5 -10 18 6 11 8 11 12 0 2 -7 1 -15 -2
-18z m-578 -89 c18 -5 22 -13 22 -50 0 -61 -15 -63 -43 -4 -29 60 -26 66 21
54z m82 -185 c0 -6 -4 -7 -10 -4 -5 3 -10 11 -10 16 0 6 5 7 10 4 6 -3 10 -11
10 -16z m-30 -33 c0 -2 -7 -9 -15 -16 -13 -11 -14 -10 -9 4 5 14 24 23 24 12z
m-49 -100 c5 3 9 1 9 -5 0 -5 -4 -13 -10 -16 -5 -3 -10 -1 -10 6 0 8 -4 8 -15
-1 -18 -15 -20 1 -3 18 8 8 14 9 16 2 2 -5 8 -8 13 -4z m-61 -91 c0 -16 -6
-25 -15 -25 -8 0 -15 -5 -15 -12 0 -6 -2 -9 -5 -6 -5 5 26 68 33 68 1 0 2 -11
2 -25z m-99 -148 c-10 -9 -11 -8 -5 6 3 10 9 15 12 12 3 -3 0 -11 -7 -18z
m-2981 -267 c0 -5 -4 -10 -10 -10 -5 0 -10 5 -10 10 0 6 5 10 10 10 6 0 10 -4
10 -10z m2815 -440 c3 -5 -1 -10 -9 -10 -9 0 -16 5 -16 10 0 6 4 10 9 10 6 0
13 -4 16 -10z m-31 -64 c-4 -18 0 -27 16 -36 12 -6 24 -9 28 -6 3 3 0 6 -6 6
-7 0 -12 11 -12 23 0 13 6 24 13 24 9 0 13 -12 12 -35 -1 -51 -30 -59 -72 -18
-39 37 -40 44 -10 56 34 14 38 12 31 -14z m106 9 c0 -8 -4 -15 -10 -15 -5 0
-10 7 -10 15 0 8 5 15 10 15 6 0 10 -7 10 -15z m-1373 -21 c-3 -3 -12 -4 -19
-1 -8 3 -5 6 6 6 11 1 17 -2 13 -5z m-1497 -113 c0 -6 -4 -13 -10 -16 -5 -3
-10 1 -10 9 0 9 5 16 10 16 6 0 10 -4 10 -9z m2895 -31 c8 -26 -4 -48 -16 -29
-12 19 -11 49 0 49 5 0 12 -9 16 -20z m-1195 -305 c0 -2 -7 -5 -15 -9 -9 -3
-15 0 -15 9 0 9 6 12 15 9 8 -4 15 -7 15 -9z m-1500 -64 c0 -5 -7 -12 -16 -15
-14 -5 -15 -4 -4 9 14 17 20 19 20 6z m2820 -5 c0 -3 -4 -8 -10 -11 -5 -3 -10
-1 -10 4 0 6 5 11 10 11 6 0 10 -2 10 -4z"/>
<path d="M2390 10460 c0 -5 5 -10 11 -10 5 0 7 5 4 10 -3 6 -8 10 -11 10 -2 0
-4 -4 -4 -10z"/>
<path d="M2365 10400 c-3 -5 3 -10 15 -10 12 0 18 5 15 10 -3 6 -10 10 -15 10
-5 0 -12 -4 -15 -10z"/>
<path d="M2330 10363 c0 -14 14 -29 32 -36 14 -5 16 -2 9 16 -8 21 -41 38 -41
20z"/>
<path d="M2871 9004 c-19 -20 -22 -27 -11 -34 25 -15 45 -4 48 28 4 39 -5 40
-37 6z"/>
<path d="M3810 6180 c0 -5 5 -10 10 -10 6 0 10 5 10 10 0 6 -4 10 -10 10 -5 0
-10 -4 -10 -10z"/>
<path d="M3825 6090 c-3 -5 -1 -10 4 -10 6 0 11 5 11 10 0 6 -2 10 -4 10 -3 0
-8 -4 -11 -10z"/>
<path d="M2847 5915 c23 -34 45 -55 57 -55 15 0 8 12 -30 54 -64 70 -75 70
-27 1z"/>
<path d="M2920 5805 c16 -27 37 -65 46 -84 18 -39 23 -38 17 4 -3 17 -24 52
-49 80 l-44 50 30 -50z"/>
<path d="M3010 5657 c0 -11 29 -67 35 -67 3 0 5 6 5 14 0 14 -39 67 -40 53z"/>
<path d="M3220 5289 c0 -5 5 -7 10 -4 6 3 10 8 10 11 0 2 -4 4 -10 4 -5 0 -10
-5 -10 -11z"/>
<path d="M3440 4878 c0 -23 12 -58 19 -58 4 0 5 16 3 35 -4 32 -22 51 -22 23z"/>
<path d="M3640 4466 c0 -2 7 -6 15 -10 8 -3 15 -1 15 4 0 6 -7 10 -15 10 -8 0
-15 -2 -15 -4z"/>
<path d="M3643 4420 c-2 -24 1 -25 23 -3 16 16 16 16 11 -2 -4 -11 -2 -27 3
-35 7 -11 9 -6 7 20 -2 26 -7 36 -23 38 -14 2 -20 -3 -21 -18z"/>
<path d="M3687 4283 c-8 -13 2 -43 14 -43 10 0 10 8 0 34 -5 12 -10 16 -14 9z"/>
<path d="M2545 9399 c-10 -15 1 -23 20 -15 9 3 13 10 10 16 -8 13 -22 13 -30
-1z"/>
<path d="M5940 6010 c0 -5 7 -10 15 -10 8 0 15 5 15 10 0 6 -7 10 -15 10 -8 0
-15 -4 -15 -10z"/>
<path d="M6030 5150 c0 -5 5 -10 10 -10 6 0 10 5 10 10 0 6 -4 10 -10 10 -5 0
-10 -4 -10 -10z"/>
<path d="M1760 4160 c-8 -5 -12 -11 -10 -14 3 -2 14 2 24 10 22 15 10 19 -14
4z"/>
<path d="M3842 3153 c-24 -16 -41 -34 -40 -43 2 -8 36 -31 77 -52 80 -41 85
-43 76 -28 -9 15 6 12 25 -5 10 -9 41 -16 81 -17 l64 -3 -2 45 c-2 39 -7 50
-44 83 -23 21 -48 36 -56 33 -7 -3 -13 -1 -13 4 0 6 -28 10 -63 10 -52 0 -71
-5 -105 -27z m191 -130 c-7 -2 -19 -2 -25 0 -7 3 -2 5 12 5 14 0 19 -2 13 -5z"/>
<path d="M3767 3073 c-4 -3 -7 -25 -7 -49 0 -46 19 -63 44 -39 11 11 16 12 19
2 4 -9 6 -9 6 1 1 7 6 10 11 7 16 -10 11 8 -8 30 -31 35 -58 55 -65 48z"/>
<path d="M4288 10978 c-4 -168 -5 -163 18 -166 12 -2 29 4 37 13 15 14 17 12
26 -22 6 -21 17 -72 25 -113 8 -41 20 -88 26 -105 13 -32 21 -94 45 -349 8
-87 17 -161 20 -165 2 -4 11 -63 19 -132 9 -68 23 -150 31 -182 11 -42 13 -81
9 -143 -8 -92 4 -167 38 -243 29 -65 32 -102 13 -146 -10 -25 -18 -79 -21
-142 -4 -93 -2 -103 15 -113 30 -15 33 -13 26 20 -4 20 -3 30 5 30 7 0 9 9 5
23 -5 17 -4 19 4 7 9 -13 11 -13 11 -1 0 12 3 12 12 3 7 -7 21 -12 32 -12 15
0 17 -3 8 -12 -8 -8 -15 -8 -27 2 -14 12 -18 11 -26 -1 -13 -22 -11 -29 14
-38 12 -5 35 -21 50 -35 15 -14 34 -26 42 -26 8 0 17 -4 20 -10 3 -5 17 -10
31 -10 21 0 24 3 19 22 -6 16 -4 20 9 15 9 -4 21 2 30 15 14 20 10 25 -87 106
-56 47 -110 90 -119 96 -22 13 -23 39 -3 56 8 7 77 19 152 27 76 8 140 16 142
19 3 3 0 9 -7 13 -10 6 -12 24 -6 69 5 47 13 67 35 92 33 35 36 63 15 131 -8
27 -10 51 -5 61 20 36 29 107 19 159 -7 38 -6 76 5 143 8 50 16 195 19 322 3
128 10 244 16 260 14 35 11 213 -4 274 -7 30 -8 68 -2 112 4 37 5 83 2 103
l-7 35 -364 0 -365 0 -2 -62z m349 -1874 c1 -25 -2 -33 -9 -26 -9 9 -4 62 5
62 2 0 3 -16 4 -36z m83 -100 c0 -8 -5 -12 -10 -9 -6 4 -8 11 -5 16 9 14 15
11 15 -7z m57 -10 c3 -8 12 -13 19 -10 7 3 16 1 20 -5 4 -6 11 -6 20 2 8 6 14
8 14 3 -1 -35 -64 -40 -97 -7 -12 12 -19 24 -15 27 11 11 33 6 39 -10z"/>
<path d="M5166 10888 c-9 -84 -26 -247 -36 -361 -11 -114 -24 -247 -30 -295
-13 -119 -13 -119 15 -126 52 -13 60 2 73 141 25 262 64 642 77 746 l6 47 -44
0 -44 0 -17 -152z"/>
<path d="M5348 11033 c-29 -7 -21 -25 10 -21 15 2 26 7 25 13 -2 12 -12 14
-35 8z"/>
<path d="M5515 10944 c-8 -100 -2 -118 34 -111 18 3 26 33 36 130 l7 77 -35 0
-35 0 -7 -96z"/>
<path d="M5667 10958 c3 -58 -5 -153 -27 -318 -43 -334 -66 -500 -76 -560 -2
-14 -9 -67 -15 -118 -5 -51 -16 -123 -23 -160 -19 -107 -17 -116 28 -123 66
-11 76 -4 76 55 0 28 5 80 10 116 5 36 16 121 25 190 15 121 21 169 66 520 19
151 31 219 45 260 3 8 7 53 9 100 2 47 6 93 10 103 6 15 0 17 -63 17 l-70 0 5
-82z"/>
<path d="M5944 11032 c3 -5 -6 -62 -20 -128 -25 -122 -28 -139 -39 -259 -4
-38 -9 -78 -11 -89 -2 -10 -6 -150 -8 -310 -5 -291 -5 -291 19 -351 14 -33 25
-75 25 -93 0 -22 10 -46 31 -72 32 -39 32 -40 25 -120 -3 -44 -13 -119 -22
-166 -8 -48 -13 -89 -10 -91 2 -3 40 -1 83 4 l78 8 7 77 c4 43 12 87 18 98 11
21 40 28 40 10 0 -5 5 -10 11 -10 5 0 8 4 5 9 -3 4 -2 28 3 52 9 43 12 37 14
-26 1 -47 -14 -128 -29 -150 -8 -11 -14 -28 -14 -38 0 -18 6 -19 78 -13 42 4
93 10 112 13 33 6 33 6 10 15 -14 5 -27 9 -30 8 -2 -1 -7 8 -12 19 -4 12 -14
21 -23 21 -11 0 -15 10 -15 35 0 31 4 37 38 51 20 8 75 25 122 36 47 11 96 25
110 31 14 6 34 14 45 18 19 6 19 7 -5 17 -18 8 -20 11 -7 11 9 1 17 6 17 11 0
6 -8 10 -17 10 -11 0 -14 3 -7 8 10 6 16 27 26 87 2 15 -3 21 -22 23 -14 2
-30 8 -35 12 -6 5 -29 5 -50 0 -56 -13 -75 -12 -75 4 0 14 19 32 134 126 107
87 107 86 100 104 -6 15 -12 13 -52 -10 -101 -59 -276 -144 -297 -144 -12 0
-30 9 -39 19 -17 18 -17 20 3 40 12 12 29 21 38 21 70 0 338 129 351 169 3 9
0 11 -8 6 -7 -5 -23 -9 -34 -11 -18 -2 -97 -28 -156 -51 -26 -11 -59 -12 -65
-3 -3 5 6 17 20 26 14 9 29 32 35 56 6 21 19 47 30 56 37 34 54 47 69 55 29
14 -72 -4 -103 -18 -17 -8 -58 -16 -91 -17 -49 -3 -61 -7 -70 -24 -6 -12 -16
-28 -21 -35 -6 -8 -12 -32 -12 -54 -1 -22 -7 -42 -13 -44 -6 -2 -20 -12 -30
-22 -11 -11 -21 -19 -23 -19 -14 0 -27 277 -16 335 l8 40 1 -42 c0 -24 4 -43
9 -43 9 1 62 84 62 98 0 5 -7 15 -15 22 -11 9 -14 23 -9 45 4 22 1 35 -10 44
-9 8 -16 26 -16 42 0 22 -5 29 -18 29 -17 0 -20 13 -25 128 -4 70 -7 169 -7
220 l0 92 -101 0 c-55 0 -98 -4 -95 -8z m227 -505 c-4 -61 -11 -59 -11 3 0 29
3 50 7 46 4 -4 6 -26 4 -49z m149 -485 c0 -17 -60 -62 -75 -56 -20 8 -19 41 3
53 21 13 72 14 72 3z m-125 -42 c3 -5 1 -10 -4 -10 -6 0 -11 5 -11 10 0 6 2
10 4 10 3 0 8 -4 11 -10z"/>
<path d="M6485 11033 c-11 -3 -24 -10 -30 -17 -5 -6 -29 -20 -52 -30 -24 -11
-43 -22 -43 -26 0 -23 88 -27 96 -5 4 8 11 15 16 15 12 0 138 61 138 66 0 5
-101 3 -125 -3z"/>
<path d="M7063 11023 c-11 -33 -25 -44 -38 -33 -14 11 -61 4 -71 -11 -3 -5 2
-6 10 -3 8 3 26 -2 40 -11 29 -19 33 -53 15 -120 -14 -50 -59 -269 -56 -272
11 -10 77 86 77 112 0 12 4 14 19 5 22 -11 34 -39 40 -90 1 -13 28 -15 169
-17 164 -2 168 -2 261 30 94 32 126 56 105 77 -6 6 -100 15 -225 21 -225 10
-244 13 -234 29 3 5 -1 10 -10 10 -9 0 -13 -4 -10 -10 3 -5 -1 -10 -10 -10 -9
0 -13 5 -10 10 3 6 -1 10 -10 10 -9 0 -15 6 -12 13 4 13 33 14 292 7 135 -3
153 -2 180 15 17 11 32 23 35 27 3 4 59 9 125 12 116 6 317 22 381 32 37 5 89
43 77 55 -4 4 -41 -1 -81 -12 -69 -19 -117 -19 -96 0 22 20 143 54 197 54 l57
0 0 44 0 43 -177 -2 c-126 -1 -155 -3 -100 -7 82 -6 101 -19 52 -36 -16 -5
-36 -15 -43 -22 -6 -6 -21 -15 -32 -18 -11 -4 -18 -11 -15 -16 10 -16 -23 -22
-88 -14 -50 5 -66 11 -80 31 -17 23 -17 27 -3 49 22 33 21 35 -19 35 -32 0
-35 -2 -35 -30 0 -49 -25 -62 -123 -64 -47 0 -83 3 -80 8 3 4 -5 5 -17 1 -14
-4 -25 -2 -30 5 -4 7 -31 15 -59 18 -42 4 -55 10 -72 33 l-20 29 -135 0 c-119
0 -135 -2 -141 -17z"/>
<path d="M7418 11033 c12 -2 30 -2 40 0 9 3 -1 5 -23 4 -22 0 -30 -2 -17 -4z"/>
<path d="M6823 10931 c-34 -3 -68 -12 -75 -20 -11 -11 -4 -13 44 -8 31 3 69
12 85 21 15 8 24 15 18 14 -5 -1 -38 -4 -72 -7z"/>
<path d="M681 10864 c0 -11 3 -14 6 -6 3 7 2 16 -1 19 -3 4 -6 -2 -5 -13z"/>
<path d="M6532 10829 c-56 -16 -26 -26 39 -13 33 7 63 15 67 18 9 9 -69 5
-106 -5z"/>
<path d="M8235 10822 c-11 -10 -87 -37 -127 -46 -14 -3 -39 -19 -55 -34 -15
-16 -35 -31 -43 -34 -28 -10 -2 -19 56 -19 33 0 79 7 104 16 25 9 60 22 78 28
29 11 32 15 32 54 0 35 -3 43 -18 43 -10 0 -22 -4 -27 -8z"/>
<path d="M6814 10763 c-10 -7 -35 -13 -56 -13 -30 0 -38 -4 -38 -18 0 -10 -6
-24 -12 -31 -11 -12 -10 -13 6 -7 10 3 38 11 62 17 24 6 44 15 44 19 0 5 14
11 30 15 17 4 30 10 30 15 0 14 -47 17 -66 3z"/>
<path d="M6668 10683 c7 -3 16 -2 19 1 4 3 -2 6 -13 5 -11 0 -14 -3 -6 -6z"/>
<path d="M7733 10649 c-18 -5 -47 -28 -68 -53 -27 -33 -46 -46 -83 -56 -88
-22 -92 -26 -44 -39 35 -10 53 -9 100 4 158 45 182 48 232 26 76 -33 289 -79
373 -80 36 -1 37 0 37 37 0 34 -4 39 -33 50 -18 7 -45 12 -59 12 -14 0 -46 9
-72 21 -25 11 -50 17 -55 14 -12 -7 -137 27 -177 48 -39 20 -112 28 -151 16z"/>
<path d="M6741 10614 c-57 -15 -118 -41 -126 -54 -2 -4 37 -10 88 -13 92 -5
144 -21 149 -45 2 -10 8 -9 25 3 22 15 22 17 6 43 -9 15 -13 24 -8 20 13 -12
34 35 22 50 -12 16 -88 14 -156 -4z"/>
<path d="M6551 10516 c-9 -10 -8 -15 3 -19 14 -5 36 10 36 25 0 13 -27 9 -39
-6z"/>
<path d="M7033 10515 c-18 -20 -16 -73 6 -121 l19 -41 98 -7 c55 -3 173 -18
264 -31 307 -47 420 -59 420 -45 0 6 -12 11 -27 11 -20 1 -22 3 -9 6 15 4 16
7 5 15 -9 6 -1 7 26 3 22 -4 67 -8 100 -10 33 -2 77 -10 97 -19 28 -12 64 -15
143 -14 58 2 105 6 105 11 0 4 -17 7 -38 7 -25 0 -46 7 -60 20 -12 12 -22 18
-22 14 0 -3 -16 4 -36 15 -23 14 -62 24 -109 28 -63 5 -79 3 -120 -17 -39 -19
-56 -21 -108 -16 -34 4 -73 14 -86 23 -17 11 -56 16 -140 18 -87 2 -141 10
-216 30 -66 18 -112 25 -136 21 -28 -4 -42 -1 -59 14 -13 11 -29 20 -36 20
-19 0 -26 17 -16 37 5 10 7 24 5 31 -6 16 -55 15 -70 -3z"/>
<path d="M6655 10420 c-17 -7 -16 -9 10 -9 17 0 37 4 45 9 12 8 10 10 -10 9
-14 0 -34 -4 -45 -9z"/>
<path d="M7124 10309 c-3 -5 18 -9 47 -9 29 0 50 2 48 4 -10 9 -90 13 -95 5z"/>
<path d="M6205 10286 c-20 -21 -25 -35 -25 -78 l0 -53 46 48 c34 37 44 55 42
75 -4 36 -31 40 -63 8z"/>
<path d="M7241 10296 c12 -10 60 -16 54 -6 -3 5 -18 10 -32 10 -15 0 -24 -2
-22 -4z"/>
<path d="M7350 10284 c0 -10 41 -22 90 -27 38 -4 46 -4 25 2 -57 16 -115 29
-115 25z"/>
<path d="M7120 10261 c0 -5 26 -13 58 -16 31 -4 107 -21 167 -38 61 -16 129
-35 153 -41 23 -6 41 -15 39 -21 -2 -5 -8 -10 -13 -10 -47 3 -160 20 -205 31
-31 8 -69 14 -83 14 -14 0 -26 5 -26 10 0 6 -3 9 -7 8 -5 -1 -25 2 -46 7 -32
6 -42 4 -62 -15 -33 -31 -17 -50 40 -50 50 0 61 -10 69 -69 3 -24 8 -47 11
-50 3 -3 61 1 128 8 313 32 422 40 547 40 133 0 294 -11 358 -25 l32 -6 0 75
0 76 -42 6 c-24 3 -144 7 -268 9 -157 2 -246 8 -295 19 -38 9 -95 18 -125 21
l-55 5 50 -13 c28 -7 59 -18 70 -23 11 -6 39 -14 63 -18 23 -4 42 -11 42 -17
0 -6 -12 -8 -28 -5 -16 3 -64 9 -106 13 -42 4 -79 11 -82 15 -3 5 -18 9 -33 9
-15 0 -78 11 -141 24 -156 32 -210 39 -210 27z"/>
<path d="M7055 10210 c-8 -13 4 -32 16 -25 12 8 12 35 0 35 -6 0 -13 -4 -16
-10z"/>
<path d="M6180 10131 c0 -11 4 -21 9 -21 18 0 21 18 6 30 -13 10 -15 9 -15 -9z"/>
<path d="M7875 10052 c-59 -2 -119 -8 -415 -37 -233 -24 -253 -29 -190 -55 17
-7 30 -17 30 -22 0 -5 14 1 31 13 30 21 40 22 295 24 215 2 264 0 268 -11 5
-14 66 -20 66 -8 0 4 -13 20 -30 35 -16 16 -26 30 -22 32 13 7 157 -18 181
-32 47 -26 191 -23 191 5 0 17 -52 31 -165 43 -127 14 -171 16 -240 13z"/>
<path d="M7524 9920 c-28 -4 -60 -12 -72 -19 -14 -7 -23 -8 -27 -1 -13 20 -43
10 -57 -20 -9 -21 -18 -28 -30 -24 -15 4 -17 1 -11 -27 6 -31 5 -32 -20 -25
-17 4 -27 2 -27 -4 0 -13 -113 -66 -185 -87 -27 -8 -55 -19 -60 -24 -6 -4 -39
-8 -74 -8 -67 1 -85 15 -63 49 9 15 8 17 -9 13 -12 -3 -18 -11 -15 -19 3 -7
-3 -18 -12 -23 -14 -9 -14 -11 -2 -11 8 -1 4 -6 -9 -11 -19 -8 -27 -5 -39 12
-15 22 -15 22 -32 -12 -16 -31 -17 -35 -1 -55 9 -12 22 -19 28 -17 7 3 13 0
13 -7 0 -6 -5 -8 -10 -5 -6 3 -25 -9 -43 -28 -20 -22 -46 -37 -70 -41 -21 -4
-35 -11 -32 -17 4 -5 -8 -9 -24 -9 -17 0 -31 -5 -31 -11 0 -6 -7 -8 -15 -5 -9
3 -18 -1 -21 -9 -4 -8 -12 -15 -20 -15 -8 0 -14 -8 -14 -18 0 -31 -22 -42 -85
-43 -77 -1 -37 -17 48 -18 48 -1 57 2 57 17 0 10 8 24 18 32 25 22 133 67 203
85 34 9 71 22 83 30 33 22 167 72 211 79 22 4 54 13 70 21 81 37 252 105 265
105 17 0 75 -62 63 -67 -7 -3 -13 -14 -13 -25 0 -11 -8 -22 -20 -25 -21 -6
-28 -23 -8 -23 6 0 8 -3 5 -7 -4 -3 0 -14 9 -24 17 -19 12 -55 -6 -44 -5 3
-18 1 -28 -4 -13 -7 -22 -7 -31 2 -8 8 -15 6 -27 -11 -11 -15 -26 -22 -47 -22
-109 0 -204 -12 -234 -31 -25 -15 -37 -18 -52 -10 -15 8 -25 6 -44 -9 -14 -11
-40 -23 -59 -27 -18 -3 -39 -12 -46 -20 -7 -7 -22 -13 -31 -13 -10 0 -24 -7
-31 -15 -7 -8 -19 -15 -26 -15 -8 0 -14 -4 -14 -10 0 -5 -9 -10 -20 -10 -12 0
-32 -7 -46 -16 -18 -12 -37 -15 -70 -10 -58 8 -49 -9 13 -23 68 -16 194 -27
628 -56 209 -14 427 -30 485 -35 58 -5 119 -10 135 -12 40 -3 52 6 60 43 4 17
25 48 46 69 32 31 61 45 159 76 l119 39 1 168 c0 148 -2 168 -17 174 -9 4 -19
1 -21 -5 -2 -7 -12 -12 -23 -12 -10 0 -19 -4 -19 -10 0 -5 -9 -10 -20 -10 -11
0 -20 5 -20 10 0 6 -4 10 -10 10 -5 0 -7 -7 -4 -15 5 -12 -3 -15 -36 -15 -38
0 -41 2 -35 22 6 17 4 20 -10 15 -9 -4 -28 -7 -41 -7 -14 0 -23 -5 -22 -12 2
-8 -9 -14 -24 -16 -16 -2 -28 1 -28 6 0 17 -38 20 -77 6 -50 -17 -64 -17 -57
1 4 8 1 15 -6 15 -7 0 -27 7 -45 16 -30 14 -37 14 -93 -5 -55 -18 -64 -18
-103 -4 -24 8 -50 19 -57 25 -9 8 -20 8 -38 -1 -30 -13 -37 -14 -30 -2 3 5 25
18 49 29 33 15 80 23 188 31 236 18 260 20 277 31 15 8 15 10 -3 11 -11 1 -33
3 -50 5 -52 6 -239 25 -264 27 -13 1 -26 8 -29 15 -4 13 -11 13 -88 2z m236
-210 c0 -5 -2 -10 -4 -10 -3 0 -8 5 -11 10 -3 6 -1 10 4 10 6 0 11 -4 11 -10z
m157 4 c-3 -3 -12 -4 -19 -1 -8 3 -5 6 6 6 11 1 17 -2 13 -5z m-194 -286 c10
-5 17 -11 15 -13 -2 -2 -80 -6 -173 -10 -180 -6 -201 1 -85 29 69 16 208 13
243 -6z m-238 -98 c116 -5 244 -13 285 -17 l75 -7 -52 -7 c-63 -8 -215 -3
-308 10 -38 6 -124 10 -191 11 -160 0 -279 10 -262 22 7 5 64 7 128 3 63 -3
210 -10 325 -15z"/>
<path d="M8162 9899 c4 -11 -3 -16 -24 -17 -17 -1 -38 -7 -47 -12 -24 -14 76
-13 138 2 58 13 66 24 19 25 -18 0 -46 4 -62 8 -23 6 -28 5 -24 -6z"/>
<path d="M8010 9860 c-18 -12 -2 -12 25 0 13 6 15 9 5 9 -8 0 -22 -4 -30 -9z"/>
<path d="M7540 9790 c0 -5 4 -10 9 -10 6 0 13 5 16 10 3 6 -1 10 -9 10 -9 0
-16 -4 -16 -10z"/>
<path d="M7925 9770 c-9 -15 -1 -23 21 -18 15 3 16 4 1 16 -11 9 -17 10 -22 2z"/>
<path d="M8095 9751 c-6 -11 9 -23 19 -14 9 9 7 23 -3 23 -6 0 -12 -4 -16 -9z"/>
<path d="M7036 9564 c-9 -24 -2 -26 12 -4 7 11 8 20 3 20 -5 0 -12 -7 -15 -16z"/>
<path d="M8255 9230 c-19 -7 -19 -8 -2 -15 19 -8 31 -2 26 13 -2 5 -13 6 -24
2z"/>
<path d="M8220 9145 c-14 -8 -37 -14 -52 -15 -16 0 -27 -5 -25 -12 3 -16 -70
-30 -93 -18 -26 14 -33 12 -26 -6 5 -13 1 -15 -20 -10 -46 12 -87 -13 -46 -29
12 -4 297 -45 320 -45 2 0 2 33 0 72 -3 80 -12 90 -58 63z"/>
<path d="M4727 8866 c7 -36 -16 -42 -44 -12 -16 18 -31 25 -42 21 -9 -4 -28
-9 -44 -12 -30 -6 -45 -22 -30 -32 15 -9 30 -42 37 -83 7 -36 46 -77 78 -79 7
-1 2 -4 -12 -8 -14 -4 -36 -4 -49 1 -49 18 -79 -14 -66 -70 7 -31 35 -54 86
-71 67 -22 169 -4 169 29 0 25 -21 73 -37 83 -7 4 -13 17 -13 29 0 14 -5 18
-15 14 -11 -4 -15 1 -15 19 0 26 -15 41 -25 25 -3 -5 -11 -10 -17 -10 -6 0 -6
6 2 15 11 13 10 18 -6 30 -10 8 -25 15 -31 15 -19 0 -15 18 5 22 9 2 25 -7 35
-19 10 -13 24 -23 31 -23 21 0 46 -40 46 -75 0 -19 5 -35 11 -35 8 0 9 11 5
31 -3 17 -7 64 -7 103 -1 39 -4 61 -6 49 -2 -12 -10 -27 -18 -33 -10 -9 -15
-6 -20 10 -4 12 -4 24 -1 27 3 4 6 -1 6 -10 0 -9 5 -17 11 -17 11 0 5 63 -7
82 -11 17 -21 7 -17 -16z"/>
<path d="M0 8841 c0 -27 4 -41 13 -41 7 0 86 -36 176 -80 90 -44 166 -79 168
-76 9 9 -18 43 -86 109 -77 74 -149 113 -224 123 l-47 7 0 -42z"/>
<path d="M5560 8813 c-14 -3 -47 -11 -75 -18 -27 -8 -77 -21 -110 -30 -33 -9
-62 -19 -65 -22 -6 -7 75 1 210 21 58 8 108 16 113 16 4 0 7 5 7 10 0 6 -6 10
-12 9 -30 -4 -43 2 -23 11 l20 9 -20 -1 c-11 0 -31 -3 -45 -5z"/>
<path d="M5190 8707 l-35 -12 2 -220 c3 -210 4 -221 24 -237 23 -19 44 -24 34
-8 -3 6 1 10 10 10 13 0 14 4 5 20 -10 18 -6 86 7 120 3 8 7 51 9 95 2 44 7
81 12 83 6 2 7 12 4 24 -3 13 1 26 12 34 17 12 17 15 -7 46 -13 18 -22 39 -20
46 6 15 -11 15 -57 -1z"/>
<path d="M4268 8621 c-31 -3 -60 -10 -64 -14 -17 -17 14 -25 71 -19 46 5 61
11 63 25 2 9 0 16 -5 16 -4 -1 -34 -5 -65 -8z"/>
<path d="M690 8205 c0 -14 134 -295 141 -295 16 0 19 53 4 69 -8 10 -15 24
-15 32 0 8 -7 27 -16 44 -8 16 -14 40 -12 54 2 19 -2 27 -17 30 -11 2 -34 20
-52 40 -18 20 -32 32 -33 26z"/>
<path d="M5600 8075 c0 -11 34 -44 42 -39 13 9 9 24 -7 24 -8 0 -15 5 -15 10
0 6 -4 10 -10 10 -5 0 -10 -2 -10 -5z"/>
<path d="M5516 8003 c-3 -3 6 -15 20 -28 13 -12 24 -28 24 -35 0 -16 150 -160
167 -160 7 0 13 3 13 6 0 4 -40 46 -90 94 -49 48 -90 94 -90 102 0 15 -34 31
-44 21z"/>
<path d="M5680 7997 c0 -7 18 -23 40 -37 22 -14 40 -30 40 -37 0 -7 7 -13 15
-13 24 0 2 35 -35 57 -17 9 -30 20 -30 24 0 4 -7 9 -15 13 -8 3 -15 0 -15 -7z"/>
<path d="M5191 7960 c-11 -7 -12 -120 -2 -120 5 0 31 15 59 33 95 62 92 58 37
53 -27 -2 -58 -8 -67 -11 -10 -4 -18 -3 -18 3 0 5 19 13 43 16 23 4 53 14 67
22 23 13 21 14 -43 12 -38 -2 -72 -5 -76 -8z"/>
<path d="M5820 7901 c0 -6 11 -13 25 -16 14 -3 36 -7 50 -10 14 -3 25 -1 25 4
0 5 -16 12 -36 15 -19 4 -42 10 -50 13 -8 3 -14 0 -14 -6z"/>
<path d="M5958 7843 c7 -3 16 -2 19 1 4 3 -2 6 -13 5 -11 0 -14 -3 -6 -6z"/>
<path d="M5782 7748 c4 -12 12 -17 58 -37 14 -6 36 -20 50 -30 14 -11 39 -23
55 -26 l30 -7 -25 21 c-14 11 -30 21 -36 21 -6 0 -23 11 -38 25 -15 14 -33 25
-41 25 -8 0 -17 5 -20 10 -9 14 -38 13 -33 -2z"/>
<path d="M1940 7724 c0 -8 5 -12 10 -9 6 4 8 11 5 16 -9 14 -15 11 -15 -7z"/>
<path d="M1680 7664 c0 -8 5 -12 10 -9 6 3 10 10 10 16 0 5 -4 9 -10 9 -5 0
-10 -7 -10 -16z"/>
<path d="M5578 7623 c7 -3 16 -2 19 1 4 3 -2 6 -13 5 -11 0 -14 -3 -6 -6z"/>
<path d="M6000 7619 c0 -5 5 -7 10 -4 6 3 10 8 10 11 0 2 -4 4 -10 4 -5 0 -10
-5 -10 -11z"/>
<path d="M6250 7401 c0 -5 5 -13 10 -16 6 -3 10 -2 10 4 0 5 -4 13 -10 16 -5
3 -10 2 -10 -4z"/>
<path d="M6980 7156 c0 -2 7 -7 16 -10 8 -3 12 -2 9 4 -6 10 -25 14 -25 6z"/>
<path d="M7020 7131 c0 -5 7 -12 16 -15 24 -9 27 -7 10 9 -17 17 -26 19 -26 6z"/>
<path d="M7080 7080 c0 -5 5 -10 11 -10 5 0 7 5 4 10 -3 6 -8 10 -11 10 -2 0
-4 -4 -4 -10z"/>
<path d="M6920 6625 c13 -14 26 -25 28 -25 3 0 -5 11 -18 25 -13 14 -26 25
-28 25 -3 0 5 -11 18 -25z"/>
<path d="M8000 5465 c-7 -8 -8 -15 -3 -15 5 0 20 -19 33 -42 22 -40 37 -57 50
-58 3 0 4 19 2 43 -3 39 -2 41 12 23 18 -23 45 -15 43 13 -3 41 -110 68 -137
36z m69 -44 c-3 -8 -10 -8 -23 2 -12 8 -16 19 -11 26 6 10 11 10 22 -2 9 -8
14 -20 12 -26z"/>
<path d="M7515 5399 c-4 -6 -5 -13 -2 -16 7 -7 27 6 27 18 0 12 -17 12 -25 -2z"/>
<path d="M8148 5403 c-10 -3 -18 -13 -18 -24 0 -24 12 -24 34 0 19 20 12 30
-16 24z"/>
<path d="M8250 5284 c0 -38 5 -67 15 -80 13 -17 14 -14 15 42 0 38 -5 67 -15
80 -13 17 -14 14 -15 -42z"/>
<path d="M7561 5263 c23 -29 37 -43 44 -43 10 0 -39 59 -49 59 -5 1 -2 -7 5
-16z"/>
<path d="M7605 5150 c-3 -5 -1 -10 4 -10 6 0 11 5 11 10 0 6 -2 10 -4 10 -3 0
-8 -4 -11 -10z"/>
<path d="M8087 5131 c3 -12 9 -21 14 -21 14 0 11 16 -5 29 -12 10 -13 8 -9 -8z"/>
<path d="M7395 5050 c-3 -5 -1 -10 4 -10 6 0 11 5 11 10 0 6 -2 10 -4 10 -3 0
-8 -4 -11 -10z"/>
<path d="M7753 5004 c16 -9 32 -13 35 -9 9 9 -19 25 -43 24 -16 0 -15 -2 8
-15z"/>
<path d="M7655 4911 c-18 -18 31 -37 52 -20 6 6 18 7 25 3 7 -4 28 -10 48 -14
19 -3 35 -11 35 -17 0 -15 144 -88 153 -78 4 3 0 10 -8 15 -17 9 -48 33 -95
72 -27 23 -46 29 -119 36 -48 4 -89 6 -91 3z"/>
<path d="M0 4831 c0 -5 7 -11 15 -15 9 -3 15 0 15 9 0 8 -7 15 -15 15 -8 0
-15 -4 -15 -9z"/>
<path d="M7490 4820 c0 -5 9 -10 19 -10 11 0 23 5 26 10 4 6 -5 10 -19 10 -14
0 -26 -4 -26 -10z"/>
<path d="M6 4793 c-3 -3 -6 -41 -6 -84 0 -66 2 -77 15 -73 8 4 15 14 15 23 0
9 6 23 12 29 10 10 10 17 0 32 -6 11 -12 31 -12 44 0 25 -12 40 -24 29z"/>
<path d="M8040 4732 c0 -4 9 -8 19 -8 11 0 17 4 15 8 -3 4 -12 8 -20 8 -8 0
-14 -4 -14 -8z"/>
<path d="M7550 4705 c0 -8 5 -15 10 -15 6 0 10 7 10 15 0 8 -4 15 -10 15 -5 0
-10 -7 -10 -15z"/>
<path d="M7555 4541 c-43 -9 -115 -52 -115 -69 0 -12 10 -13 48 -8 71 10 132
36 132 56 0 14 -25 35 -33 29 -1 -1 -15 -4 -32 -8z"/>
<path d="M348 4348 c9 -9 15 -9 24 0 9 9 7 12 -12 12 -19 0 -21 -3 -12 -12z"/>
<path d="M314 4316 c-8 -22 -2 -27 16 -16 12 7 12 12 3 21 -10 10 -14 9 -19
-5z"/>
<path d="M14 4225 c-8 -20 8 -38 30 -33 25 5 24 19 -1 35 -20 14 -23 14 -29
-2z"/>
<path d="M160 4231 c0 -6 -18 -14 -40 -17 -22 -4 -40 -10 -40 -14 0 -14 71
-22 86 -9 16 13 18 35 4 44 -5 3 -10 1 -10 -4z"/>
<path d="M7677 4224 c3 -7 9 -14 14 -14 14 0 10 17 -5 23 -10 4 -13 1 -9 -9z"/>
<path d="M210 3916 c0 -2 7 -6 15 -10 8 -3 15 -1 15 4 0 6 -7 10 -15 10 -8 0
-15 -2 -15 -4z"/>
<path d="M0 3890 c0 -5 5 -10 11 -10 5 0 7 5 4 10 -3 6 -8 10 -11 10 -2 0 -4
-4 -4 -10z"/>
<path d="M230 3781 c0 -25 6 -27 13 -6 4 8 2 17 -3 20 -6 4 -10 -3 -10 -14z"/>
<path d="M321 3691 c-21 -18 -22 -21 -7 -27 21 -8 39 8 34 31 -3 15 -5 15 -27
-4z"/>
<path d="M135 3670 c3 -5 8 -10 11 -10 2 0 4 5 4 10 0 6 -5 10 -11 10 -5 0 -7
-4 -4 -10z"/>
<path d="M8168 3673 c7 -3 16 -2 19 1 4 3 -2 6 -13 5 -11 0 -14 -3 -6 -6z"/>
<path d="M1240 3510 c0 -5 5 -10 10 -10 6 0 10 5 10 10 0 6 -4 10 -10 10 -5 0
-10 -4 -10 -10z"/>
<path d="M780 3501 c0 -6 5 -13 10 -16 6 -3 10 1 10 9 0 9 -4 16 -10 16 -5 0
-10 -4 -10 -9z"/>
<path d="M665 3490 c-3 -5 -1 -10 4 -10 6 0 11 5 11 10 0 6 -2 10 -4 10 -3 0
-8 -4 -11 -10z"/>
<path d="M1146 3481 c-12 -5 -16 -10 -9 -14 13 -8 43 2 43 14 0 10 -8 10 -34
0z"/>
<path d="M731 3457 c-13 -16 -5 -27 21 -27 11 0 18 7 18 20 0 23 -22 27 -39 7z"/>
<path d="M1265 3460 c3 -5 10 -10 16 -10 5 0 9 5 9 10 0 6 -7 10 -16 10 -8 0
-12 -4 -9 -10z"/>
<path d="M1155 3440 c-3 -5 -2 -10 4 -10 5 0 13 5 16 10 3 6 2 10 -4 10 -5 0
-13 -4 -16 -10z"/>
<path d="M983 3433 c-15 -6 -17 -33 -3 -33 5 0 14 9 20 20 11 20 6 23 -17 13z"/>
<path d="M790 3400 c8 -5 20 -10 25 -10 6 0 3 5 -5 10 -8 5 -19 10 -25 10 -5
0 -3 -5 5 -10z"/>
<path d="M925 3400 c-18 -8 -17 -9 8 -9 15 -1 27 4 27 9 0 12 -8 12 -35 0z"/>
<path d="M215 3390 c-3 -5 -1 -10 4 -10 6 0 11 5 11 10 0 6 -2 10 -4 10 -3 0
-8 -4 -11 -10z"/>
<path d="M1020 3375 c-7 -9 -8 -15 -2 -15 5 0 12 7 16 15 3 8 4 15 2 15 -2 0
-9 -7 -16 -15z"/>
<path d="M960 3220 c0 -5 5 -10 11 -10 5 0 7 5 4 10 -3 6 -8 10 -11 10 -2 0
-4 -4 -4 -10z"/>
<path d="M26 2987 c3 -10 9 -15 12 -12 3 3 0 11 -7 18 -10 9 -11 8 -5 -6z"/>
<path d="M76 2924 c-4 -9 -4 -19 -1 -22 2 -3 7 3 11 12 4 9 4 19 1 22 -2 3 -7
-3 -11 -12z"/>
<path d="M1 1533 c-1 -910 2 -1373 9 -1373 14 0 12 -38 -3 -43 -6 -2 -8 -8 -4
-13 4 -5 11 -4 15 2 4 6 18 15 32 19 13 4 31 14 39 22 12 12 12 16 1 23 -8 5
-18 6 -22 4 -17 -11 -7 22 15 50 21 25 26 27 46 17 12 -7 31 -9 41 -6 17 5 20
1 21 -22 1 -15 0 -34 -1 -42 -1 -8 4 -12 13 -8 17 7 52 -38 42 -53 -3 -6 -2
-10 4 -10 5 0 13 -10 17 -22 14 -47 64 -78 126 -78 l43 0 -112 117 c-62 65
-113 124 -113 131 0 21 58 -33 123 -116 32 -40 68 -77 80 -82 12 -5 36 -18 52
-29 29 -20 43 -21 481 -21 l451 0 35 38 c50 54 116 168 135 232 21 72 13 242
-14 320 -43 120 -88 216 -133 284 -41 63 -69 107 -145 231 -11 18 -42 52 -70
75 -49 42 -75 79 -75 106 0 8 -6 14 -14 14 -8 0 -17 9 -21 19 -3 11 -41 53
-83 95 -81 79 -242 315 -242 355 0 12 -10 31 -21 42 -12 12 -40 56 -62 98 -21
42 -43 81 -48 87 -5 6 -21 33 -35 60 -29 55 -81 114 -101 114 -20 0 -33 -35
-33 -88 0 -38 -5 -55 -25 -76 -14 -15 -25 -35 -25 -44 0 -12 -4 -10 -13 8 -11
22 -10 31 9 70 78 157 109 259 85 283 -8 8 -11 4 -11 -18 0 -32 -51 -127 -58
-107 -2 8 3 33 13 57 9 24 15 61 13 82 l-3 38 -24 -60 c-14 -33 -33 -71 -43
-84 -10 -13 -18 -32 -18 -41 0 -10 -8 -24 -17 -31 -15 -12 -16 -12 -10 5 13
35 49 171 54 204 3 18 -1 54 -10 80 -8 26 -20 70 -27 97 -15 59 -26 75 -50 75
-22 0 -26 -11 -35 -84 -4 -31 -12 -59 -18 -63 -6 -3 -7 -1 -3 5 4 7 3 12 -2
12 -4 0 -16 -26 -26 -57 -10 -32 -23 -67 -30 -78 -7 -11 -18 -41 -26 -67 -7
-29 -18 -48 -27 -48 -11 0 -13 8 -8 33 10 51 16 67 24 67 11 0 7 235 -4 237
-5 1 -9 -8 -7 -19 2 -17 0 -19 -12 -9 -8 7 -12 19 -9 27 3 8 -1 14 -10 14 -15
0 -27 20 -27 46 0 8 7 14 15 14 8 0 15 5 15 10 0 6 -4 10 -9 10 -6 0 -13 -4
-16 -10 -15 -24 -27 -8 -23 30 2 22 1 40 -3 40 -4 0 -9 19 -13 41 -4 23 -15
54 -25 68 -10 14 -21 35 -24 46 -2 11 -5 -598 -6 -1352z m350 990 c1 -10 2
-35 2 -55 0 -32 3 -36 16 -25 12 10 14 9 8 -6 -4 -10 -7 -25 -7 -33 0 -9 -5
-12 -12 -8 -8 5 -9 -2 -5 -24 4 -18 2 -32 -3 -32 -5 0 -8 -8 -7 -17 1 -27 -25
-145 -39 -172 -7 -13 -10 -30 -7 -37 3 -8 -1 -14 -11 -14 -20 0 -20 4 -1 66 8
27 17 105 20 174 6 123 20 200 37 200 4 0 9 -8 9 -17z m-81 -463 c0 -5 -5 -10
-11 -10 -5 0 -7 5 -4 10 3 6 8 10 11 10 2 0 4 -4 4 -10z m110 -145 c-7 -8 -17
-15 -22 -15 -6 0 -5 7 2 15 7 8 17 15 22 15 6 0 5 -7 -2 -15z m709 -1047 c-5
-9 -9 -26 -9 -37 0 -12 -4 -21 -8 -21 -5 0 -17 -16 -28 -35 -10 -19 -24 -35
-31 -35 -15 0 -17 16 -3 25 6 3 10 15 10 26 0 10 5 19 10 19 6 0 10 7 10 15 0
9 7 32 15 51 12 30 17 33 29 22 9 -9 11 -18 5 -30z m319 -149 c-3 -8 -7 -3
-11 10 -4 17 -3 21 5 13 5 -5 8 -16 6 -23z m-427 -32 c-8 -8 -11 -7 -11 4 0
20 13 34 18 19 3 -7 -1 -17 -7 -23z m204 -86 c-17 -46 -113 -172 -145 -190
l-36 -20 4 33 c3 23 17 46 43 72 21 21 39 43 39 50 0 16 82 84 93 77 4 -3 6
-12 2 -22z m-315 -31 c-24 -15 -37 -11 -16 5 11 8 22 12 25 9 3 -3 -1 -9 -9
-14z m577 -142 c-3 -8 -6 -5 -6 6 -1 11 2 17 5 13 3 -3 4 -12 1 -19z m-379
-65 c-4 -22 -38 -30 -38 -10 0 14 13 24 33 26 5 1 7 -7 5 -16z m192 -38 c10
-12 9 -20 -4 -40 -18 -27 -45 -32 -79 -14 -33 18 -33 18 -3 44 33 28 68 32 86
10z m-160 -14 c0 -22 -29 -36 -43 -22 -7 7 -6 15 3 26 17 21 40 19 40 -4z
m-1020 -49 c0 -9 -9 -23 -19 -29 -16 -10 -20 -9 -25 4 -4 9 1 21 11 29 24 18
33 17 33 -4z"/>
<path d="M6635 1681 c-3 -5 -1 -12 5 -16 5 -3 10 1 10 9 0 18 -6 21 -15 7z"/>
<path d="M6100 1490 c0 -5 5 -10 10 -10 6 0 10 5 10 10 0 6 -4 10 -10 10 -5 0
-10 -4 -10 -10z"/>
<path d="M2495 1460 c-3 -5 -1 -10 4 -10 6 0 11 5 11 10 0 6 -2 10 -4 10 -3 0
-8 -4 -11 -10z"/>
<path d="M7950 1390 c0 -5 4 -10 9 -10 6 0 13 5 16 10 3 6 -1 10 -9 10 -9 0
-16 -4 -16 -10z"/>
<path d="M7580 1265 c0 -3 12 -10 26 -15 29 -11 54 -3 33 11 -15 9 -59 12 -59
4z"/>
<path d="M8010 1241 c0 -6 5 -13 10 -16 6 -3 10 1 10 9 0 9 -4 16 -10 16 -5 0
-10 -4 -10 -9z"/>
<path d="M8225 1240 c-4 -6 -3 -16 3 -22 6 -6 12 -6 17 2 4 6 3 16 -3 22 -6 6
-12 6 -17 -2z"/>
<path d="M7845 1210 c-3 -5 1 -10 10 -10 9 0 13 5 10 10 -3 6 -8 10 -10 10 -2
0 -7 -4 -10 -10z"/>
<path d="M7270 1160 c0 -5 5 -10 10 -10 6 0 10 5 10 10 0 6 -4 10 -10 10 -5 0
-10 -4 -10 -10z"/>
<path d="M8020 1125 c0 -8 7 -15 16 -15 14 0 14 3 4 15 -7 8 -14 15 -16 15 -2
0 -4 -7 -4 -15z"/>
<path d="M1438 1123 c6 -2 18 -2 25 0 6 3 1 5 -13 5 -14 0 -19 -2 -12 -5z"/>
<path d="M7904 1108 c-7 -11 15 -29 30 -25 6 2 11 8 13 14 5 14 -35 24 -43 11z"/>
<path d="M8142 1100 c13 -21 43 -27 53 -11 6 11 -1 16 -38 25 -26 6 -27 5 -15
-14z"/>
<path d="M8097 1073 c-3 -5 -1 -17 4 -28 7 -17 8 -17 8 8 1 27 -4 34 -12 20z"/>
<path d="M7250 1050 c0 -5 12 -10 26 -10 14 0 23 4 19 10 -3 6 -15 10 -26 10
-10 0 -19 -4 -19 -10z"/>
<path d="M7855 1044 c-15 -6 -6 -76 9 -71 6 2 11 12 11 23 0 10 3 24 7 30 12
18 -3 28 -27 18z"/>
<path d="M8143 1028 c-5 -7 -13 -21 -16 -30 -4 -10 -15 -18 -26 -18 -28 0 -68
-24 -63 -38 2 -6 -1 -12 -7 -12 -6 0 -11 6 -11 14 0 8 -9 17 -19 21 -12 4 -18
12 -14 21 8 22 -20 17 -35 -6 -10 -17 -10 -20 6 -20 26 0 46 -109 23 -127 -9
-7 -23 -10 -32 -7 -9 2 -38 -8 -65 -23 -27 -14 -46 -23 -42 -18 11 11 -11 35
-32 35 -10 0 -20 8 -23 19 -4 15 -11 17 -41 12 -46 -7 -51 -24 -11 -32 27 -6
26 -7 -12 -8 -24 0 -43 4 -43 9 0 6 -9 10 -20 10 -11 0 -20 7 -20 15 0 17 -25
20 -35 5 -9 -14 19 -40 43 -40 37 0 84 -23 92 -45 7 -18 18 -24 52 -27 24 -3
46 0 49 5 4 5 15 7 25 5 18 -5 18 -5 -1 -13 -11 -5 -26 -15 -34 -23 -12 -12
-12 -15 0 -23 11 -7 9 -9 -8 -9 -12 0 -28 -3 -37 -6 -11 -4 -16 -1 -16 11 0
12 5 15 20 10 12 -4 20 -2 20 5 0 8 -11 10 -32 6 -18 -3 -42 -8 -53 -10 -11
-2 -27 -6 -35 -7 -8 -2 -14 1 -13 7 1 7 -18 19 -43 27 -42 14 -45 13 -55 -4
-12 -23 -44 -26 -35 -4 4 10 -1 15 -14 15 -28 0 -25 -16 10 -47 33 -29 38 -43
15 -43 -8 0 -15 -5 -15 -10 0 -6 -14 -24 -31 -41 -17 -17 -29 -31 -28 -32 2
-1 14 -7 25 -14 24 -13 44 -1 44 25 0 10 8 13 25 10 17 -4 25 -1 25 8 0 8 4
14 9 14 5 0 11 9 14 19 3 13 -3 23 -19 32 -29 15 -30 25 -3 39 22 13 54 6 44
-9 -3 -5 5 -11 17 -13 12 -2 23 -9 26 -17 3 -8 0 -11 -7 -7 -6 4 -18 3 -28 -2
-14 -9 -14 -10 5 -16 25 -8 27 -17 10 -34 -14 -14 -15 -13 50 -14 26 0 52 -3
59 -5 17 -7 -34 -52 -66 -60 -39 -9 -43 -13 -26 -29 11 -12 26 -14 55 -9 32 5
40 4 40 -9 0 -8 10 -21 23 -27 l22 -12 -29 -12 c-20 -8 -25 -14 -15 -18 11 -4
10 -6 -3 -6 -9 -1 -23 -8 -32 -16 -14 -14 -17 -13 -31 8 -8 13 -13 31 -10 40
8 19 -14 34 -25 17 -4 -7 -13 -9 -19 -5 -9 5 -9 10 0 22 8 9 9 17 3 21 -6 4
-13 15 -17 24 -3 9 -20 24 -38 33 -30 16 -33 16 -52 -3 -20 -20 -20 -21 -1
-49 10 -15 17 -31 16 -35 -1 -5 5 -8 13 -8 22 0 18 -27 -5 -33 -11 -3 -50 1
-87 9 -38 8 -78 17 -90 20 -15 3 -23 12 -23 25 0 16 -4 19 -22 14 -26 -8 -48
-32 -48 -52 0 -9 17 -13 57 -13 61 0 61 -8 0 -29 -24 -8 -42 -9 -50 -3 -7 5
-36 12 -64 15 -48 5 -53 4 -53 -13 0 -11 6 -20 14 -20 8 0 18 -5 22 -12 5 -8
2 -9 -11 -5 -19 8 -48 -10 -39 -24 2 -5 -12 -27 -33 -49 -36 -38 -63 -51 -63
-30 0 6 -15 10 -32 10 -25 0 -36 6 -44 24 -10 20 -9 26 5 32 9 4 22 6 29 5 6
-1 12 2 12 7 0 13 -54 23 -58 11 -5 -12 -22 -12 -22 0 0 5 15 14 33 21 17 6
40 16 50 22 26 13 31 4 19 -31 -12 -35 -9 -38 35 -39 31 -1 32 1 26 31 -3 18
-14 40 -24 50 -23 22 -74 33 -84 18 -4 -7 -19 -9 -41 -5 -20 4 -34 2 -34 -4 0
-14 -39 -22 -46 -10 -4 6 1 15 10 20 27 15 18 28 -19 28 -31 0 -35 -3 -36 -27
0 -28 -1 -28 -11 -5 -20 40 -59 23 -55 -25 2 -26 5 -30 20 -22 11 7 17 6 17
-1 0 -7 8 -9 21 -5 17 6 20 3 17 -16 -2 -15 -11 -25 -23 -27 l-20 -3 20 17
c16 14 17 16 3 11 -11 -4 -18 -1 -18 5 0 7 -9 2 -20 -10 -24 -25 -26 -36 -5
-28 9 3 15 0 15 -9 0 -8 -6 -15 -13 -15 -19 0 -47 33 -47 53 0 9 -4 17 -9 17
-5 0 -12 8 -14 18 -3 9 -5 -1 -6 -22 -1 -25 6 -47 17 -59 17 -19 16 -19 -23
-13 -22 3 -43 5 -46 6 -10 0 -29 50 -20 50 5 0 11 9 14 20 4 16 0 20 -19 20
-13 0 -33 -5 -43 -12 -11 -6 -26 -8 -37 -3 -27 11 -46 12 -67 2 -18 -8 -18
-10 -1 -28 22 -25 11 -36 -21 -21 -30 14 -32 9 -4 -17 15 -13 17 -21 9 -26 -7
-4 -15 -3 -19 3 -7 12 -114 62 -131 62 -15 0 -12 -28 7 -57 9 -14 24 -46 33
-72 10 -25 32 -79 51 -118 l33 -73 206 1 c113 1 194 4 180 8 -14 4 -24 13 -23
19 2 6 -7 14 -18 17 -19 6 -19 8 -5 24 12 13 27 17 62 14 43 -4 45 -3 39 16
-6 19 -2 21 28 21 33 0 35 -1 24 -24 -6 -13 -16 -22 -22 -19 -12 4 -35 -37
-35 -62 0 -21 16 -19 25 2 6 17 7 17 16 0 9 -16 25 -18 150 -16 77 2 134 6
127 10 -10 6 -10 11 -1 20 9 9 19 6 41 -10 36 -25 48 -26 68 -6 14 13 14 16 0
21 -23 9 -20 34 4 34 13 0 20 -7 20 -20 0 -12 10 -25 25 -32 21 -9 32 -8 63 8
20 11 38 28 40 38 3 15 1 16 -17 6 -17 -9 -21 -8 -21 5 0 10 10 15 31 15 17 0
28 -4 24 -10 -3 -6 -1 -10 4 -10 19 0 12 -31 -11 -51 -23 -18 -20 -18 188 -19
197 0 212 1 234 20 13 11 29 20 37 20 7 0 13 7 13 16 0 9 10 28 22 42 15 20
19 22 14 7 -24 -62 -28 -77 -22 -83 10 -9 85 80 86 103 1 11 4 15 6 8 6 -13
121 94 117 109 -2 4 1 8 5 8 5 0 17 7 28 15 18 14 17 15 -11 9 -22 -5 -27 -3
-20 4 9 10 40 19 72 21 16 1 17 160 0 179 -9 12 -9 16 1 19 9 4 12 49 12 183
0 160 -2 180 -17 189 -17 10 -17 10 0 11 12 0 17 8 17 29 0 22 -6 30 -24 35
-37 9 -116 -5 -116 -20 0 -8 5 -14 10 -14 6 0 10 -6 10 -14 0 -23 22 -31 32
-12 11 20 38 21 38 1 0 -33 -75 -39 -136 -10 -40 19 -43 32 -10 45 13 5 27 18
31 29 3 11 14 22 23 25 27 9 44 42 28 55 -10 8 -16 8 -23 -1z m-98 -168 c3 -5
-1 -10 -9 -10 -9 0 -16 5 -16 10 0 6 4 10 9 10 6 0 13 -4 16 -10z m187 -52
c-9 -9 -15 -9 -24 0 -10 10 -10 15 2 22 20 12 38 -6 22 -22z m-172 9 c0 -22
-11 -27 -26 -12 -19 19 -18 25 6 25 11 0 20 -6 20 -13z m-165 -97 c-3 -5 -12
-10 -18 -10 -7 0 -6 4 3 10 19 12 23 12 15 0z m279 -19 c3 -5 -1 -11 -9 -15
-9 -3 -15 0 -15 9 0 16 16 20 24 6z m-264 -20 c0 -11 6 -23 12 -27 13 -8 -17
-21 -53 -23 -22 -1 -13 56 10 62 29 8 31 7 31 -12z m150 -7 c12 -22 19 -25 46
-19 23 4 33 1 37 -10 12 -30 -54 -42 -74 -13 -3 5 -20 10 -37 11 -37 2 -37 1
-16 32 21 31 27 31 44 -1z m-60 6 c0 -5 -2 -10 -4 -10 -3 0 -8 5 -11 10 -3 6
-1 10 4 10 6 0 11 -4 11 -10z m-242 -28 c2 -7 -3 -12 -12 -12 -9 0 -16 7 -16
16 0 17 22 14 28 -4z m72 -1 c0 -17 -14 -18 -40 -5 l-25 14 33 0 c17 0 32 -4
32 -9z m146 -35 c-4 -15 -1 -27 7 -30 9 -5 9 -7 0 -12 -29 -13 -9 -23 41 -21
48 3 55 0 60 -17 9 -34 7 -37 -14 -16 -24 24 -43 25 -60 5 -7 -8 -21 -15 -31
-15 -12 0 -16 5 -13 15 4 9 0 15 -10 15 -14 0 -20 10 -18 30 0 3 -31 6 -70 6
-49 1 -73 5 -79 15 -21 33 -2 40 25 10 19 -20 39 -19 67 6 10 8 27 11 47 7 25
-5 32 -3 32 10 0 9 5 16 11 16 7 0 9 -9 5 -24z m174 -26 c0 -5 -4 -10 -10 -10
-5 0 -10 5 -10 10 0 6 5 10 10 10 6 0 10 -4 10 -10z m87 -72 c-3 -8 -6 -5 -6
6 -1 11 2 17 5 13 3 -3 4 -12 1 -19z m-387 -8 c0 -5 -4 -10 -10 -10 -5 0 -10
5 -10 10 0 6 5 10 10 10 6 0 10 -4 10 -10z m354 -19 c6 -9 -34 -61 -48 -61
-14 0 -2 55 14 62 21 9 28 9 34 -1z m-257 -16 c9 -25 -4 -29 -17 -6 -7 15 -7
21 0 21 6 0 13 -7 17 -15z m56 -2 c-4 -10 -15 -27 -25 -37 -16 -18 -18 -18
-18 -3 0 9 5 17 10 17 6 0 10 6 10 14 0 12 6 18 27 25 1 1 -1 -7 -4 -16z m76
10 c-4 -23 3 -32 18 -26 11 5 14 3 8 -6 -4 -8 -2 -17 6 -22 24 -14 0 -23 -26
-9 -30 16 -43 49 -24 61 17 11 19 11 18 2z m-70 -84 c-16 -10 -23 -4 -14 10 3
6 11 8 17 5 6 -4 5 -9 -3 -15z m-94 -9 c3 -5 16 -10 28 -11 l22 0 -22 -11
c-13 -6 -23 -15 -23 -20 0 -4 -13 -8 -30 -8 -25 0 -30 4 -30 24 0 31 40 50 55
26z m-375 -35 c0 -3 -6 -14 -12 -26 -11 -17 -10 -22 5 -33 21 -16 22 -34 0
-58 -23 -25 -32 -23 -30 9 2 22 -3 29 -21 31 -16 2 -22 8 -18 18 4 11 -3 14
-36 12 -47 -3 -60 13 -23 30 32 15 58 16 50 2 -3 -5 1 -10 9 -10 9 0 15 3 15
8 -3 18 3 22 31 22 17 0 30 -2 30 -5z m150 -15 c0 -5 -12 -10 -27 -10 -16 0
-38 -3 -50 -6 -13 -4 -23 -2 -23 4 0 12 22 19 68 21 17 0 32 -3 32 -9z m448
-48 c-5 -2 -15 2 -23 8 -11 9 -12 17 -4 33 11 20 12 19 24 -9 6 -16 8 -31 3
-32z m-794 33 c4 -11 -3 -19 -20 -25 -33 -13 -34 -13 -34 5 0 8 7 15 15 15 8
0 15 5 15 10 0 16 17 12 24 -5z m869 5 c8 0 8 -3 0 -11 -13 -13 -56 -2 -47 12
3 6 13 8 21 5 8 -3 20 -6 26 -6z m37 6 c0 -3 -4 -8 -10 -11 -5 -3 -10 -1 -10
4 0 6 5 11 10 11 6 0 10 -2 10 -4z m-1680 -16 c0 -5 11 -10 25 -10 14 0 25 5
25 10 0 25 28 7 32 -20 6 -39 -18 -63 -37 -37 -16 22 -24 21 -52 -5 -17 -16
-26 -19 -34 -11 -8 8 -6 15 9 24 16 10 18 17 11 36 -6 18 -5 23 6 23 8 0 15
-4 15 -10z m1103 -43 c4 3 7 1 7 -5 0 -7 -11 -12 -25 -12 -19 0 -25 5 -25 22
0 20 1 20 18 5 10 -10 22 -14 25 -10z m-728 -27 c-5 -8 -11 -8 -17 -2 -6 6 -7
16 -3 22 5 8 11 8 17 2 6 -6 7 -16 3 -22z m335 21 c0 -5 -6 -14 -14 -20 -16
-13 -32 2 -21 19 8 12 35 13 35 1z m616 -12 c4 -7 0 -16 -9 -21 -9 -4 -23 -15
-31 -23 -19 -19 -26 -19 -26 0 0 8 5 15 12 15 6 0 8 3 5 7 -4 3 1 12 11 19 21
17 29 17 38 3z m-997 -17 c5 -10 21 -24 35 -32 21 -11 24 -16 13 -28 -10 -13
-9 -15 6 -9 11 4 16 3 12 -3 -10 -16 -33 -12 -47 9 -7 10 -23 21 -35 25 -12 4
-24 15 -26 24 -3 10 -6 4 -7 -13 -2 -29 -2 -29 -9 -5 -12 41 38 69 58 32z
m-176 -7 c-3 -9 -8 -14 -10 -11 -3 3 -2 9 2 15 9 16 15 13 8 -4z m482 5 c-3
-5 -13 -10 -21 -10 -8 0 -12 5 -9 10 3 6 13 10 21 10 8 0 12 -4 9 -10z m415 0
c-8 -5 -19 -10 -25 -10 -5 0 -3 5 5 10 8 5 20 10 25 10 6 0 3 -5 -5 -10z
m-851 -16 c6 4 11 1 11 -8 0 -27 48 -75 71 -69 12 3 18 11 15 19 -3 8 1 14 10
14 8 0 12 -4 9 -10 -3 -5 -1 -10 4 -10 18 0 12 -37 -6 -45 -30 -13 -47 -11
-68 7 -11 9 -33 22 -49 28 -22 8 -26 14 -18 22 14 14 16 32 3 23 -14 -8 -24
13 -16 33 5 13 8 14 14 3 5 -7 14 -10 20 -7z m-174 -4 c3 -5 -3 -18 -13 -28
-14 -14 -21 -15 -29 -6 -8 8 -7 16 5 28 19 18 28 20 37 6z m769 -6 c11 -28 7
-34 -24 -34 -34 0 -37 6 -13 32 20 22 29 23 37 2z m-904 -4 c0 -5 -4 -10 -9
-10 -6 0 -13 5 -16 10 -3 6 1 10 9 10 9 0 16 -4 16 -10z m1600 -6 c0 -17 -22
-14 -28 4 -2 7 3 12 12 12 9 0 16 -7 16 -16z m60 6 c0 -5 -4 -10 -10 -10 -5 0
-10 5 -10 10 0 6 5 10 10 10 6 0 10 -4 10 -10z m-1090 -15 c-13 -16 -40 -20
-40 -7 0 14 12 22 33 22 16 0 17 -3 7 -15z m790 -5 c0 -5 -8 -10 -17 -10 -15
0 -16 2 -3 10 19 12 20 12 20 0z m-620 -16 c0 -2 -11 -4 -25 -4 -14 0 -25 4
-25 9 0 4 11 6 25 3 14 -2 25 -6 25 -8z m37 0 c-3 -3 -12 -4 -19 -1 -8 3 -5 6
6 6 11 1 17 -2 13 -5z m-178 -57 c1 -41 -2 -57 -15 -68 -11 -8 -15 -9 -11 -2
4 7 2 22 -5 34 -10 17 -10 23 0 26 6 3 12 15 12 28 0 13 -6 26 -12 28 -7 3 -4
6 8 6 18 1 21 -5 23 -52z m699 14 c-5 -2 -15 2 -21 8 -9 9 -8 14 3 21 11 7 17
4 21 -8 4 -9 2 -19 -3 -21z m-528 4 c-7 -8 -18 -15 -25 -15 -7 0 -11 -10 -9
-26 2 -26 2 -26 -44 -20 -25 3 -50 10 -55 15 -11 11 43 50 61 44 6 -3 12 1 12
7 0 7 6 10 13 7 6 -2 21 -1 32 3 26 10 31 4 15 -15z m-645 3 c-11 -6 -23 -16
-27 -22 -4 -6 -10 -7 -14 -3 -11 11 17 37 40 37 21 -1 21 -1 1 -12z m975 -8
c0 -5 -5 -10 -11 -10 -5 0 -7 5 -4 10 3 6 8 10 11 10 2 0 4 -4 4 -10z m-290
-4 c0 -2 -7 -9 -15 -16 -12 -10 -15 -10 -15 4 0 9 7 16 15 16 8 0 15 -2 15 -4z
m240 -6 c0 -5 -5 -10 -11 -10 -5 0 -7 5 -4 10 3 6 8 10 11 10 2 0 4 -4 4 -10z
m-703 -20 c3 -10 2 -11 -4 -4 -4 7 -17 14 -28 17 -16 5 -15 5 4 4 14 -1 26 -9
28 -17z m800 -2 c-3 -8 -6 -5 -6 6 -1 11 2 17 5 13 3 -3 4 -12 1 -19z m-17 2
c0 -5 -9 -10 -20 -10 -11 0 -20 5 -20 10 0 6 9 10 20 10 11 0 20 -4 20 -10z
m170 0 c0 -5 -6 -10 -12 -10 -7 0 -23 -3 -35 -6 -13 -4 -23 -2 -23 4 0 9 20
17 58 21 6 0 12 -3 12 -9z m30 0 c0 -5 -4 -10 -10 -10 -5 0 -10 5 -10 10 0 6
5 10 10 10 6 0 10 -4 10 -10z m-125 -20 c3 -5 -1 -10 -10 -10 -9 0 -13 5 -10
10 3 6 8 10 10 10 2 0 7 -4 10 -10z m155 -26 c0 -17 -22 -14 -28 4 -2 7 3 12
12 12 9 0 16 -7 16 -16z m-823 -16 c-3 -8 -6 -5 -6 6 -1 11 2 17 5 13 3 -3 4
-12 1 -19z m773 9 c0 -12 -66 -38 -75 -29 -6 6 45 40 63 41 6 1 12 -5 12 -12z
m110 -1 c0 -7 -6 -19 -14 -25 -19 -16 -41 10 -24 27 16 16 38 15 38 -2z m-70
-26 c0 -5 -4 -10 -10 -10 -5 0 -10 5 -10 10 0 6 5 10 10 10 6 0 10 -4 10 -10z"/>
<path d="M7620 971 c0 -10 30 -24 37 -17 3 3 2 9 -2 15 -8 13 -35 15 -35 2z"/>
<path d="M7840 935 c0 -8 5 -15 10 -15 6 0 10 7 10 15 0 8 -4 15 -10 15 -5 0
-10 -7 -10 -15z"/>
<path d="M7520 910 c0 -5 7 -10 15 -10 8 0 15 5 15 10 0 6 -7 10 -15 10 -8 0
-15 -4 -15 -10z"/>
<path d="M6698 856 c-10 -7 -15 -16 -12 -19 9 -8 44 11 44 23 0 13 -12 12 -32
-4z"/>
<path d="M7910 860 c-8 -5 -11 -12 -7 -16 4 -4 13 -2 19 4 15 15 7 24 -12 12z"/>
<path d="M7430 850 c-13 -8 -13 -10 2 -10 9 0 20 5 23 10 8 13 -5 13 -25 0z"/>
<path d="M7361 813 c1 -5 1 -15 0 -23 -1 -13 -2 -13 -11 0 -9 13 -10 13 -10 0
0 -8 5 -22 10 -30 7 -10 10 -11 10 -2 0 10 4 10 20 0 10 -7 23 -9 27 -5 4 5 2
12 -5 16 -7 4 -12 12 -11 17 4 21 -2 34 -16 34 -8 0 -14 -3 -14 -7z"/>
<path d="M7586 812 c-8 -14 12 -38 23 -27 6 6 4 14 -4 22 -8 7 -16 9 -19 5z"/>
<path d="M7536 785 c4 -8 10 -12 15 -9 14 8 10 24 -6 24 -9 0 -12 -6 -9 -15z"/>
<path d="M7695 770 c-3 -5 1 -10 10 -10 9 0 13 5 10 10 -3 6 -8 10 -10 10 -2
0 -7 -4 -10 -10z"/>
<path d="M7260 760 l-25 -8 23 -7 c12 -4 22 -12 22 -19 0 -6 4 -6 9 3 6 9 11
10 15 2 4 -6 17 -11 28 -11 21 0 21 0 -2 25 -25 27 -31 28 -70 15z"/>
<path d="M2435 750 c-3 -5 -1 -10 4 -10 6 0 11 5 11 10 0 6 -2 10 -4 10 -3 0
-8 -4 -11 -10z"/>
<path d="M7437 704 c-12 -12 -8 -21 11 -19 9 0 18 5 20 10 4 12 -21 19 -31 9z"/>
<path d="M6975 690 c3 -5 11 -10 16 -10 6 0 7 5 4 10 -3 6 -11 10 -16 10 -6 0
-7 -4 -4 -10z"/>
<path d="M7112 673 c-6 -3 -10 -9 -6 -14 7 -12 44 -12 44 0 0 11 -21 19 -38
14z"/>
<path d="M7360 670 c0 -5 5 -10 10 -10 6 0 10 5 10 10 0 6 -4 10 -10 10 -5 0
-10 -4 -10 -10z"/>
<path d="M6425 660 c3 -5 8 -10 11 -10 2 0 4 5 4 10 0 6 -5 10 -11 10 -5 0 -7
-4 -4 -10z"/>
<path d="M6675 660 c3 -5 10 -10 16 -10 5 0 9 5 9 10 0 6 -7 10 -16 10 -8 0
-12 -4 -9 -10z"/>
<path d="M7440 659 c0 -5 -11 -7 -25 -3 -15 4 -25 2 -25 -5 0 -6 -5 -11 -12
-11 -6 0 -23 -14 -37 -30 l-26 -31 -28 27 c-16 14 -31 23 -35 19 -11 -11 23
-60 43 -60 10 0 20 -5 22 -12 3 -8 15 -5 39 9 41 24 87 19 77 -9 -6 -15 -5
-16 9 -3 9 8 12 18 7 21 -6 3 -7 14 -3 24 5 13 4 16 -4 11 -8 -5 -10 -2 -6 8
3 9 10 16 14 16 15 0 19 28 4 34 -8 3 -14 1 -14 -5z"/>
<path d="M6949 656 c-2 -3 -3 -24 -1 -49 3 -37 7 -43 25 -42 29 2 34 37 10 69
-18 25 -26 30 -34 22z"/>
<path d="M7000 630 c0 -5 7 -10 15 -10 8 0 15 -5 15 -10 0 -7 6 -7 20 0 21 11
22 10 24 -32 1 -14 -2 -24 -6 -22 -5 3 -15 -1 -23 -9 -12 -13 -10 -17 18 -30
30 -15 32 -15 39 4 5 12 5 32 2 45 -3 13 -1 31 6 38 9 12 5 17 -27 25 -48 14
-83 14 -83 1z"/>
<path d="M7172 609 c-21 -8 -22 -10 -7 -32 8 -13 12 -27 8 -31 -10 -10 -15
-56 -6 -56 19 1 35 19 28 31 -5 8 -5 11 0 7 4 -4 15 -3 22 4 22 18 37 -11 17
-33 -20 -22 -18 -38 9 -60 52 -45 83 -44 35 1 -19 17 -20 22 -8 30 8 5 17 7
21 5 10 -7 32 42 25 54 -4 6 -15 11 -26 11 -10 0 -21 7 -24 16 -3 8 -14 14
-23 13 -10 0 -27 -1 -38 0 -19 2 -19 2 -2 15 24 18 1 37 -31 25z"/>
<path d="M7616 581 c-4 -7 -5 -15 -2 -18 9 -9 19 4 14 18 -4 11 -6 11 -12 0z"/>
<path d="M6496 554 c-8 -22 -9 -21 14 -27 29 -8 24 -27 -10 -38 -31 -11 -42
-39 -14 -39 8 0 12 -4 9 -10 -3 -5 -1 -10 4 -10 6 0 11 5 11 10 0 6 11 10 25
10 30 0 33 -16 5 -23 -14 -4 -19 -12 -17 -29 4 -26 9 -27 53 -8 29 12 31 17
30 59 -1 37 -5 46 -21 49 -30 6 -38 18 -26 39 7 14 7 20 -2 20 -7 0 -22 3 -33
7 -15 5 -23 2 -28 -10z"/>
<path d="M7655 550 c-3 -5 -1 -10 4 -10 6 0 11 5 11 10 0 6 -2 10 -4 10 -3 0
-8 -4 -11 -10z"/>
<path d="M7690 550 c-12 -8 -9 -10 12 -10 15 0 30 5 33 10 8 13 -25 13 -45 0z"/>
<path d="M6920 540 c0 -5 9 -10 20 -10 11 0 20 5 20 10 0 6 -9 10 -20 10 -11
0 -20 -4 -20 -10z"/>
<path d="M6855 530 c-3 -6 6 -15 20 -20 18 -7 25 -15 21 -25 -6 -17 10 -30 19
-16 3 6 0 20 -7 33 -20 36 -41 47 -53 28z"/>
<path d="M6265 490 c3 -5 8 -10 11 -10 2 0 4 5 4 10 0 6 -5 10 -11 10 -5 0 -7
-4 -4 -10z"/>
<path d="M6418 493 c7 -3 16 -2 19 1 4 3 -2 6 -13 5 -11 0 -14 -3 -6 -6z"/>
<path d="M7502 477 c-29 -13 -23 -31 11 -35 21 -3 27 1 27 17 0 26 -10 31 -38
18z"/>
<path d="M6792 464 c-7 -8 -8 -14 -3 -14 10 0 25 19 20 25 -2 1 -10 -3 -17
-11z"/>
<path d="M7060 473 c0 -13 29 -38 35 -31 3 3 -4 13 -15 23 -11 10 -20 13 -20
8z"/>
<path d="M6650 455 c0 -8 5 -15 10 -15 6 0 10 7 10 15 0 8 -4 15 -10 15 -5 0
-10 -7 -10 -15z"/>
<path d="M7143 450 c-30 -24 -29 -34 4 -49 23 -11 29 -10 40 5 17 23 16 34 -1
34 -8 0 -16 6 -18 14 -2 12 -7 11 -25 -4z"/>
<path d="M6455 420 c-3 -6 1 -13 9 -16 9 -3 16 -13 16 -22 0 -8 3 -13 6 -9 9
9 -4 57 -16 57 -5 0 -12 -5 -15 -10z"/>
<path d="M6380 372 c0 -14 11 -21 26 -15 21 8 17 23 -6 23 -11 0 -20 -4 -20
-8z"/>
<path d="M6770 360 c0 -11 4 -20 9 -20 11 0 22 26 14 34 -12 12 -23 5 -23 -14z"/>
<path d="M6320 350 c0 -5 5 -10 10 -10 6 0 10 5 10 10 0 6 -4 10 -10 10 -5 0
-10 -4 -10 -10z"/>
<path d="M6690 316 c0 -9 5 -16 10 -16 6 0 10 4 10 9 0 6 -4 13 -10 16 -5 3
-10 -1 -10 -9z"/>
<path d="M1636 202 c-11 -49 -32 -105 -52 -139 -19 -30 -34 -57 -34 -59 0 -2
16 -4 35 -4 29 0 37 5 46 28 17 43 30 144 27 203 l-3 54 -19 -83z"/>
<path d="M80 106 c-6 -8 -27 -20 -46 -26 -30 -10 -34 -16 -34 -46 0 -36 12
-43 36 -20 18 19 18 27 -1 20 -8 -4 -15 -1 -15 4 0 6 16 16 36 21 36 10 74 37
74 53 0 14 -37 9 -50 -6z"/>
<path d="M6870 50 c-13 -9 -13 -11 0 -20 10 -6 16 -6 18 0 7 20 -3 30 -18 20z"/>
</g>
</svg>
